<?xml version="1.0" encoding="utf-8"?>
<!-- Generator: Adobe Illustrator 18.1.1, SVG Export Plug-In . SVG Version: 6.00 Build 0)  -->
<svg version="1.1" id="Layer_1" xmlns="http://www.w3.org/2000/svg" xmlns:xlink="http://www.w3.org/1999/xlink" x="0px" y="0px"
	 viewBox="0 0 540 540" style="enable-background:new 0 0 540 540;" xml:space="preserve">
<path d="M281.2,80.7c-105.7,0-158.9,75.7-158.9,138.9c0,38.3,14.4,72.2,45.6,85c5.1,2.1,9.7,0.1,11.2-5.6c1.1-3.9,3.5-13.7,4.5-17.8
	c1.5-5.6,0.9-7.5-3.2-12.4c-9-10.5-14.7-24.3-14.7-43.6c0-56.2,42.1-106.5,109.5-106.5c59.7,0,92.5,36.5,92.5,85.2
	c0,64.1-28.4,118.2-70.5,118.2c-23.3,0-40.7-19.2-35.1-42.8c6.6-28.2,19.6-58.5,19.6-78.9c0-18.2-9.8-33.4-30-33.4
	c-23.7,0-42.9,24.6-42.9,57.6c0,21,7.1,35.2,7.1,35.2S191.5,362.9,187.3,381c-8.5,36-1.3,80.1-0.6,84.5c0.3,2.6,3.8,3.3,5.3,1.3
	c2.2-2.8,30.5-37.9,40.2-72.8c2.7-9.9,15.6-61.2,15.6-61.2c7.7,14.8,30.3,27.7,54.3,27.7c71.5,0,120-65.2,120-152.4
	C422,142.1,366.1,80.7,281.2,80.7z"/>
</svg>
