<?xml version="1.0" encoding="utf-8"?>
<!-- Generator: Adobe Illustrator 18.1.1, SVG Export Plug-In . SVG Version: 6.00 Build 0)  -->
<svg version="1.1" id="Layer_1" xmlns="http://www.w3.org/2000/svg" xmlns:xlink="http://www.w3.org/1999/xlink" x="0px" y="0px"
	 viewBox="0 0 540 540" style="enable-background:new 0 0 540 540;" xml:space="preserve">
<path d="M442.5,177.8c-12.3,5.5-25.5,9.2-39.4,10.8c14.1-8.5,25.1-21.9,30.2-38c-13.3,7.9-27.9,13.6-43.6,16.7
	c-12.6-13.3-30.4-21.7-50.1-21.7c-44.3,0-76.9,41.3-66.9,84.3c-57.1-2.8-107.7-30.2-141.5-71.7c-17.9,30.8-9.3,71.2,21.2,91.7
	c-11.3-0.3-21.8-3.5-31.1-8.5c-0.7,31.9,22,61.6,55.1,68.1c-9.7,2.6-20.2,3.3-31,1.2c8.8,27.3,34.1,47.1,64.1,47.7
	c-28.9,22.6-65.2,32.7-101.7,28.5c30.4,19.5,66.4,30.8,105.3,30.8c127.4,0,199.4-107.7,195.1-204.2
	C421.8,203.7,433.4,191.6,442.5,177.8z"/>
</svg>
