<?xml version="1.0" encoding="utf-8"?>
<!-- Generator: Adobe Illustrator 18.1.1, SVG Export Plug-In . SVG Version: 6.00 Build 0)  -->
<svg version="1.1" xmlns="http://www.w3.org/2000/svg" xmlns:xlink="http://www.w3.org/1999/xlink" x="0px" y="0px"
	 viewBox="0 0 60 60" style="enable-background:new 0 0 60 60;" xml:space="preserve">
<style type="text/css">
	.st0{fill:#FDF8F4;}
	.st1{fill-rule:evenodd;clip-rule:evenodd;fill:#FF6600;}
	.st2{fill:#FF6600;}
	.st3{display:none;}
	.st4{display:inline;}
</style>
<g id="Layer_1">
	<g>
		<g>
			<path class="st0" d="M29.8,46.8C29.8,46.8,29.8,46.8,29.8,46.8c1.7,0,3.3,0,5,0c1.9,0,3.8-1.4,4.5-3.2c0.3-0.8,0.4-1.7,0.5-2.6
				c0.2-2.4,0.7-4.8,1.9-6.9c1.1-2,2.2-4,3.4-6c0.9-1.6,1.7-3.4,2.2-5.2c0.6-2.3,0.6-4.7,0.2-7c-0.5-2.9-1.6-5.6-3.4-8
				c-2.1-2.8-4.9-4.7-8.2-5.9c-2.9-1.1-5.9-1.2-8.9-0.8c-1.8,0.3-3.5,0.9-5.1,1.8c-2.9,1.6-5.2,3.7-7,6.5c-2,3.3-2.8,6.9-2.5,10.7
				c0.1,1,0.2,2.1,0.5,3.1c0.6,2,1.6,3.7,2.6,5.5c1,1.8,2,3.6,3,5.4c1,2.1,1.8,4.4,1.7,6.8c-0.1,1.7,0.5,3.1,1.7,4.3
				c0.9,0.9,2,1.5,3.3,1.5C26.6,46.8,28.2,46.8,29.8,46.8z M30,59.1C30,59.1,30,59.1,30,59.1c0.3,0,0.5,0,0.8,0
				c1.3,0,2.2-0.8,2.4-2.1c0-0.2,0.1-0.3,0.3-0.3c0.4,0,0.7,0,1.1,0c0.7,0,1.2-0.5,1.1-1.2c0-0.6-0.5-1.1-1.2-1.1
				c-3.1,0-6.1,0-9.2,0c-0.7,0-1.2,0.5-1.2,1.1c0,0.7,0.5,1.1,1.2,1.2c0.3,0,0.7,0,1,0c0.3,0,0.3,0.1,0.4,0.3c0.1,1,0.8,1.8,1.8,1.9
				C29.1,59.1,29.5,59.1,30,59.1z M30,53.5L30,53.5c1,0,2,0,2.9,0c1.1,0,2.1,0,3.2,0c0.9,0,1.4-0.8,1.1-1.6
				c-0.2-0.5-0.6-0.7-1.3-0.7c-3.3,0-6.7,0-10,0c-0.7,0-1.4,0-2.1,0c-0.5,0-0.9,0.2-1.2,0.7c-0.4,0.8,0.2,1.6,1.1,1.6
				C26,53.5,28,53.5,30,53.5z M30,50.1C30,50.1,30,50.1,30,50.1c2.1,0,4.1,0,6.2,0c0.2,0,0.5-0.1,0.7-0.2c0.4-0.3,0.6-0.8,0.4-1.3
				c-0.2-0.5-0.6-0.8-1.1-0.8c-4.1,0-8.1,0-12.2,0c-0.7,0-1.2,0.5-1.2,1.1c0,0.7,0.5,1.2,1.3,1.2C26,50.1,28,50.1,30,50.1z"/>
			<path class="st1" d="M29.8,46.8c-1.6,0-3.2,0-4.8,0c-1.4,0-2.4-0.6-3.3-1.5c-1.2-1.2-1.7-2.7-1.7-4.3c0.1-2.4-0.6-4.7-1.7-6.8
				c-0.9-1.8-2-3.6-3-5.4c-1-1.8-1.9-3.6-2.6-5.5c-0.3-1-0.4-2-0.5-3.1c-0.3-3.8,0.5-7.4,2.5-10.7c1.7-2.8,4-5,7-6.5
				c1.6-0.9,3.3-1.5,5.1-1.8c3-0.5,6-0.3,8.9,0.8C39.1,3.1,41.9,5,44,7.8c1.8,2.4,3,5,3.4,8c0.4,2.4,0.4,4.7-0.2,7
				c-0.5,1.8-1.2,3.5-2.2,5.2c-1.1,2-2.3,4-3.4,6c-1.1,2.2-1.7,4.5-1.9,6.9c-0.1,0.9-0.2,1.7-0.5,2.6c-0.6,1.8-2.5,3.2-4.5,3.2
				C33.2,46.8,31.5,46.8,29.8,46.8C29.8,46.8,29.8,46.8,29.8,46.8z M33,44.4c0.7,0,1.4,0,2.1,0c0.3,0,0.6-0.1,0.8-0.3
				c0.8-0.5,1.4-1.2,1.5-2.2c0-0.5,0.2-1,0.2-1.5c0.2-2.6,0.8-5.1,2-7.5c1.1-2.2,2.4-4.3,3.6-6.4c1.8-3.1,2.6-6.4,2.1-10
				c-0.3-1.8-0.7-3.4-1.6-5c-2.4-4.6-6.2-7.3-11.2-8.2c-3.3-0.6-6.4-0.1-9.4,1.4c-2.7,1.5-4.9,3.5-6.5,6.2c-1.3,2.4-2.1,5-2,7.8
				c0,1.1,0.1,2.2,0.3,3.2c0.4,1.8,1.3,3.4,2.2,5.1c1.1,2,2.3,4,3.3,6c0.9,1.7,1.5,3.6,1.8,5.6c0.1,0.9,0.1,1.9,0.1,2.8
				c0,1.3,0.8,2.1,1.8,2.9c0,0,0.1,0.1,0.2,0.1C25.3,44.5,33,44.4,33,44.4z"/>
			<path class="st1" d="M30,59.1c-0.5,0-0.9,0-1.4-0.1c-1-0.2-1.7-0.9-1.8-1.9c0-0.3-0.1-0.4-0.4-0.3c-0.3,0-0.7,0-1,0
				c-0.7,0-1.2-0.5-1.2-1.2c0-0.7,0.5-1.1,1.2-1.1c3.1,0,6.1,0,9.2,0c0.7,0,1.2,0.5,1.2,1.1c0,0.7-0.4,1.2-1.1,1.2
				c-0.4,0-0.7,0-1.1,0c-0.2,0-0.3,0-0.3,0.3c-0.2,1.3-1.1,2-2.4,2.1C30.5,59.1,30.3,59.1,30,59.1C30,59.1,30,59.1,30,59.1z"/>
			<path class="st1" d="M30,53.5c-2,0-4.1,0-6.1,0c-0.9,0-1.5-0.8-1.1-1.6c0.2-0.5,0.6-0.7,1.2-0.7c0.7,0,1.4,0,2.1,0
				c3.3,0,6.7,0,10,0c0.7,0,1.1,0.2,1.3,0.7c0.3,0.8-0.2,1.6-1.1,1.6c-1.1,0-2.1,0-3.2,0C32,53.5,31,53.5,30,53.5L30,53.5z"/>
			<path class="st1" d="M30,50.1c-2,0-4.1,0-6.1,0c-0.7,0-1.3-0.5-1.3-1.2c0-0.7,0.5-1.1,1.2-1.1c4.1,0,8.1,0,12.2,0
				c0.6,0,1,0.3,1.1,0.8c0.2,0.5,0,1-0.4,1.3c-0.2,0.1-0.5,0.2-0.7,0.2C34.1,50.2,32.1,50.1,30,50.1C30,50.1,30,50.1,30,50.1z"/>
		</g>
		<g>
			<path class="st2" d="M28.4,28.3h1.3c2.9,0,4.3-1.8,4.3-3.9c0-2.1-1.4-3.7-3.6-3.7c-2.1,0-3.2,0.9-4.2,2.7l-2.8-1.6
				c1.2-2.7,3.6-4.2,7-4.2c4.4,0,7.2,3,7.2,6.8c0,3.6-2.3,6.1-6,6.6V34h-3.2V28.3z M27.7,39c0-1.4,1.1-2.3,2.3-2.3
				c1.2,0,2.3,1,2.3,2.3c0,1.4-1.1,2.3-2.3,2.3C28.8,41.3,27.7,40.4,27.7,39z"/>
		</g>
	</g>
</g>
<g id="Layer_2" class="st3">
	<g class="st4">
		<g>
			<path class="st2" d="M25.4,47.8c0.1,0,0.1,0.1,0.2,0.1c0.2-0.3,0.4-0.5,0.6-0.8c4.2-6.3,8.3-12.6,12.5-19
				c0.3-0.4,0.6-1.2,0.3-1.5c-0.3-0.4-1-0.6-1.5-0.6c-2.4-0.1-4.8,0-7.1,0c-2,0-2.6-0.8-1.9-2.7c1.2-3.6,2.3-7.2,3.5-10.8
				c0.1-0.4,0.2-0.7,0.3-1.1c-0.5,0.3-0.7,0.6-0.9,1c-3.2,5.2-6.3,10.4-9.5,15.7c-0.4,0.7-1.2,1.4-0.7,2.3c0.5,0.9,1.5,0.6,2.3,0.6
				c1.8,0,3.6,0,5.4,0c1.6,0,2.1,0.8,1.6,2.3c-0.1,0.2-0.1,0.3-0.2,0.5c-1.5,4.2-2.9,8.4-4.4,12.6C25.7,46.8,25.5,47.3,25.4,47.8z"
				/>
		</g>
		<path class="st2" d="M30,55.2c-14.1,0-25.6-11.5-25.6-25.6C4.4,15.5,15.9,4,30,4s25.6,11.5,25.6,25.6C55.6,43.7,44.1,55.2,30,55.2
			z M30,6.4C17.2,6.4,6.8,16.8,6.8,29.6c0,12.8,10.4,23.2,23.2,23.2s23.2-10.4,23.2-23.2C53.2,16.8,42.8,6.4,30,6.4z"/>
	</g>
</g>
</svg>
