<?xml version="1.0" encoding="utf-8"?>
<!-- Generator: Adobe Illustrator 18.1.1, SVG Export Plug-In . SVG Version: 6.00 Build 0)  -->
<svg version="1.1" xmlns="http://www.w3.org/2000/svg" xmlns:xlink="http://www.w3.org/1999/xlink" x="0px" y="0px"
	 viewBox="0 0 540 540" style="enable-background:new 0 0 540 540;" xml:space="preserve">
<style type="text/css">
	.st0{display:none;}
	.st1{display:inline;}
	.st2{fill:#FDF8F4;}
	.st3{fill-rule:evenodd;clip-rule:evenodd;fill:#FF6600;}
	.st4{fill:#FF6600;}
</style>
<g id="Layer_1" class="st0">
	<path d="M227.6,151c0-4.1,0.4-6.5,7.3-6.5h93c16.2,0,25.2,13.8,31.6,39.8l5.3,20.7h15.8c2.8-58.9,5.3-84.5,5.3-84.5
		s-39.8,4.4-63.4,4.4H203.7l-63.7-2V140l21.5,4.1c15,2.8,18.7,6.1,19.9,19.9c0,0,1.3,40.6,1.3,107.6s-1.3,107.2-1.3,107.2
		c0,12.2-4.9,16.7-19.9,19.5l-21.5,4.1v17.1l63.7-2h106.4c23.9,0,79.6,2,79.6,2c1.3-14.7,9.4-80.8,10.5-88.1h-15l-16,36.1
		c-12.6,28.4-30.9,30.5-51.2,30.5h-60.5c-20.2,0-30.1-8.1-30.1-25.6v-92.6c0,0,45,0,59.7,1.3c11.4,0.8,18.2,4.1,21.9,19.9L314,322
		h17.5l-1.3-53.2l2.4-53.6h-17.5l-5.7,23.5c-3.7,15.4-6.1,18.2-21.9,19.9c-20.7,2-60.1,1.6-60.1,1.6V151H227.6z"/>
	<g class="st1">
		<g>
			<path class="st2" d="M267.9,355.5C267.9,355.5,267.9,355.5,267.9,355.5c8.4,0,16.7,0.1,25.1-0.1c9.6-0.2,19.2-6.9,22.3-16.1
				c1.4-4.1,2.1-8.5,2.5-12.9c0.9-12.2,3.6-24,9.3-34.8c5.4-10.2,11.2-20.2,17-30.3c4.7-8.2,8.6-16.8,10.9-26
				c2.9-11.6,2.9-23.4,1-35.2c-2.3-14.8-8.1-28.1-17.2-40c-10.7-14-24.6-23.7-41.1-29.7c-14.6-5.3-29.5-6.1-44.7-3.8
				c-9,1.4-17.4,4.7-25.4,9c-14.6,7.8-26.3,18.7-34.8,32.8c-10,16.5-13.9,34.4-12.4,53.6c0.4,5.2,1,10.4,2.6,15.4
				c3.1,9.8,7.9,18.8,12.8,27.7c4.9,9,10.3,17.8,14.8,27c5.3,10.7,8.8,21.9,8.3,34.1c-0.4,8.4,2.4,15.7,8.3,21.8
				c4.6,4.7,9.8,7.7,16.6,7.5C251.9,355.4,259.9,355.5,267.9,355.5z M268.7,417.3c0,0,0-0.1,0-0.1c1.4,0,2.7,0,4.1,0
				c6.5,0,11-3.9,12-10.3c0.2-1.1,0.6-1.3,1.6-1.3c1.8,0,3.7,0.1,5.5,0c3.5-0.2,5.8-2.6,5.7-6c-0.1-3.2-2.6-5.6-6-5.6
				c-15.3,0-30.6,0-45.9,0c-3.5,0-6,2.4-6,5.7c0,3.3,2.4,5.7,5.9,5.8c1.7,0.1,3.5,0.1,5.2,0c1.3-0.1,1.7,0.4,1.9,1.7
				c0.6,4.9,4.2,8.8,9.1,9.6C264,417.2,266.4,417.1,268.7,417.3z M268.7,389L268.7,389c4.9,0,9.8,0,14.8,0c5.3,0,10.7,0,16,0
				c4.3-0.1,7-4.1,5.5-7.9c-1-2.5-3-3.7-6.3-3.7c-16.7,0-33.4,0-50,0c-3.4,0-6.9,0-10.3,0c-2.6,0-4.6,0.9-5.8,3.4
				c-1.9,4,1,8.2,5.7,8.2C248.4,389,258.6,389,268.7,389z M268.7,372.3C268.7,372.3,268.7,372.3,268.7,372.3c10.3,0,20.5,0,30.8-0.1
				c1.2,0,2.5-0.5,3.5-1.1c2.1-1.4,2.8-4,2.1-6.5c-0.8-2.4-2.9-3.9-5.8-3.9c-20.4,0-40.8,0-61.1,0c-3.6,0-6.2,2.4-6.2,5.7
				c0,3.3,2.6,5.8,6.3,5.8C248.4,372.3,258.6,372.3,268.7,372.3z"/>
			<path class="st3" d="M267.9,355.5c-8,0-16.1-0.2-24.1,0c-6.8,0.2-12-2.8-16.6-7.5c-6-6.1-8.7-13.4-8.3-21.8
				c0.5-12.2-3-23.4-8.3-34.1c-4.5-9.2-9.9-18-14.8-27c-4.9-9-9.7-17.9-12.8-27.7c-1.6-5-2.2-10.2-2.6-15.4
				c-1.5-19.2,2.4-37.1,12.4-53.6c8.5-14.1,20.3-25,34.8-32.8c8-4.3,16.4-7.7,25.4-9c15.2-2.3,30.1-1.5,44.7,3.8
				c16.5,6,30.4,15.7,41.1,29.7c9,11.9,14.8,25.2,17.2,40c1.9,11.8,1.8,23.5-1,35.2c-2.3,9.2-6.2,17.8-10.9,26
				c-5.7,10-11.5,20.1-17,30.3c-5.7,10.8-8.4,22.6-9.3,34.8c-0.3,4.3-1.1,8.8-2.5,12.9c-3.1,9.2-12.7,15.9-22.3,16.1
				C284.7,355.6,276.3,355.5,267.9,355.5C267.9,355.5,267.9,355.5,267.9,355.5z M284,343.7c3.6,0,6.9,0.1,10.3,0
				c1.4-0.1,2.9-0.5,4-1.3c3.9-2.6,6.9-5.8,7.4-10.8c0.2-2.5,0.8-5.1,0.9-7.6c0.8-13.1,4.1-25.7,10.2-37.3
				c5.7-10.9,11.8-21.5,18-32.1c8.9-15.5,12.9-32,10.3-49.9c-1.3-8.8-3.7-17.3-7.8-25.2c-11.9-23-31-36.6-56.1-41.3
				c-16.3-3-32.2-0.7-47.1,7.3c-13.7,7.3-24.7,17.4-32.4,31c-6.8,12-10.5,24.9-9.9,38.8c0.2,5.4,0.6,10.9,1.7,16.2
				c1.9,9.2,6.6,17.3,11,25.4c5.5,10.1,11.3,20.1,16.6,30.3c4.5,8.7,7.6,18.1,8.9,27.8c0.6,4.6,0.5,9.4,0.6,14
				c0.2,6.6,4.1,10.8,9.1,14.3c0.2,0.2,0.5,0.3,0.8,0.3C245.1,343.9,284,343.3,284,343.7z"/>
			<path class="st3" d="M268.7,417.3c-2.3-0.1-4.6,0-6.9-0.4c-4.9-0.8-8.5-4.7-9.1-9.6c-0.2-1.3-0.5-1.8-1.9-1.7
				c-1.7,0.1-3.5,0.1-5.2,0c-3.5-0.1-5.9-2.5-5.9-5.8c0-3.3,2.5-5.7,6-5.7c15.3,0,30.6,0,45.9,0c3.4,0,5.9,2.4,6,5.6
				c0.1,3.4-2.2,5.8-5.7,6c-1.8,0.1-3.7,0.1-5.5,0c-1,0-1.5,0.2-1.6,1.3c-0.9,6.4-5.5,10.2-12,10.3c-1.4,0-2.7,0-4.1,0
				C268.7,417.2,268.7,417.2,268.7,417.3z"/>
			<path class="st3" d="M268.7,389c-10.1,0-20.3,0-30.4,0c-4.7,0-7.6-4.2-5.7-8.2c1.1-2.4,3.2-3.4,5.8-3.4c3.4,0,6.9,0,10.3,0
				c16.7,0,33.4,0,50,0c3.3,0,5.3,1.2,6.3,3.7c1.5,3.8-1.2,7.9-5.5,7.9c-5.3,0.1-10.7,0-16,0C278.5,389,273.6,389,268.7,389
				L268.7,389z"/>
			<path class="st3" d="M268.7,372.3c-10.2,0-20.3,0-30.5,0c-3.7,0-6.3-2.5-6.3-5.8c0-3.3,2.6-5.7,6.2-5.7c20.4,0,40.8,0,61.1,0
				c2.9,0,5,1.5,5.8,3.9c0.8,2.5,0.1,5-2.1,6.5c-1,0.6-2.3,1.1-3.5,1.1C289.3,372.3,279,372.3,268.7,372.3
				C268.7,372.3,268.7,372.3,268.7,372.3z"/>
		</g>
		<g>
			<path class="st4" d="M260.9,262.8h6.7c14.5,0,21.7-9.1,21.7-19.7c0-10.4-7.2-18.3-18.1-18.3c-10.4,0-16.2,4.6-20.9,13.4l-14-8.1
				c5.8-13.5,18.1-20.9,34.9-20.9c22.2,0,35.9,15.1,35.9,33.9c0,18.2-11.5,30.8-29.9,32.8v15.6h-16.3V262.8z M257.1,316.5
				c0-6.8,5.5-11.6,11.6-11.6c6.2,0,11.6,4.8,11.6,11.6c0,6.8-5.5,11.6-11.6,11.6C262.6,328.2,257.1,323.4,257.1,316.5z"/>
		</g>
	</g>
</g>
<g id="Layer_2">
	<g>
		<g>
			<path class="st4" d="M242.9,365.4c0.3,0.2,0.6,0.3,1,0.5c1-1.3,2.2-2.5,3.1-3.9c21.5-32.6,43-65.2,64.3-97.9
				c1.5-2.2,2.9-6.3,1.8-7.9c-1.3-2-5.2-3-7.9-3.1c-12.3-0.3-24.5-0.1-36.8-0.1c-10.5,0-13.3-3.9-10.1-14c6-18.6,12-37.1,18-55.7
				c0.6-1.8,1-3.7,1.5-5.5c-2.3,1.4-3.6,3.2-4.7,5c-16.3,26.9-32.6,53.8-48.7,80.7c-2.1,3.6-6.1,7.2-3.5,11.7
				c2.5,4.5,7.7,2.9,11.9,2.9c9.3,0.2,18.7-0.1,28,0.2c8.1,0.2,10.6,4.3,8.2,12c-0.3,0.8-0.6,1.6-0.9,2.4
				c-7.6,21.7-15.2,43.3-22.7,65C244.4,360.3,243.7,362.9,242.9,365.4z"/>
		</g>
		<path class="st4" d="M266.6,403.6c-72.7,0-131.8-59.1-131.8-131.8c0-72.7,59.1-131.8,131.8-131.8s131.8,59.1,131.8,131.8
			C398.4,344.5,339.3,403.6,266.6,403.6z M266.6,152.2c-66,0-119.6,53.7-119.6,119.6c0,66,53.7,119.6,119.6,119.6
			s119.6-53.7,119.6-119.6C386.2,205.8,332.6,152.2,266.6,152.2z"/>
	</g>
</g>
</svg>
