<?xml version="1.0" encoding="utf-8"?>
<!-- Generator: Adobe Illustrator 18.1.1, SVG Export Plug-In . SVG Version: 6.00 Build 0)  -->
<svg version="1.1" id="Layer_1" xmlns="http://www.w3.org/2000/svg" xmlns:xlink="http://www.w3.org/1999/xlink" x="0px" y="0px"
	 viewBox="0 0 540 540" enable-background="new 0 0 540 540" xml:space="preserve">
<path fill="#52B5F6" d="M227.6,151c0-4.1,0.4-6.5,7.3-6.5h93c16.2,0,25.2,13.8,31.6,39.8l5.3,20.7h15.8c2.8-58.9,5.3-84.5,5.3-84.5
	s-39.8,4.4-63.4,4.4H203.7l-63.7-2V140l21.5,4.1c15,2.8,18.7,6.1,19.9,19.9c0,0,1.3,40.6,1.3,107.6s-1.3,107.2-1.3,107.2
	c0,12.2-4.9,16.7-19.9,19.5l-21.5,4.1v17.1l63.7-2h106.4c23.9,0,79.6,2,79.6,2c1.3-14.7,9.4-80.8,10.5-88.1h-15l-16,36.1
	C356.6,395.9,338.3,398,318,398h-60.5c-20.2,0-30.1-8.1-30.1-25.6v-92.6c0,0,45,0,59.7,1.3c11.4,0.8,18.2,4.1,21.9,19.9l5,21h17.5
	l-1.3-53.2l2.4-53.6h-17.5l-5.7,23.5c-3.7,15.4-6.1,18.2-21.9,19.9c-20.7,2-60.1,1.6-60.1,1.6V151H227.6z"/>
</svg>
