<?xml version="1.0" encoding="utf-8"?>
<!-- Generator: Adobe Illustrator 18.1.1, SVG Export Plug-In . SVG Version: 6.00 Build 0)  -->
<svg version="1.1" id="Layer_2" xmlns="http://www.w3.org/2000/svg" xmlns:xlink="http://www.w3.org/1999/xlink" x="0px" y="0px"
	 viewBox="0 0 540 540" enable-background="new 0 0 540 540" xml:space="preserve">
<path fill="#52B5F6" d="M380.7,133H163.1c-18,0-32.5,14.5-32.5,32.5v217.2c0,18.4,14.5,32.9,32.5,32.9h217.2
	c18,0,32.5-14.5,32.5-32.5V165.5C413.2,147.5,398.7,133,380.7,133z M326.3,176.4c0-6,4.9-11,11-11h32.5c6,0,11,4.9,11,11v32.5
	c0,6-4.9,11-11,11h-32.5c-6,0-11-4.9-11-11V176.4L326.3,176.4z M217.8,269.4L217.8,269.4c0-0.7,0-1.1,0.4-1.8l0,0
	c0-0.4,0-1.1,0.4-1.4c0.4-1.4,0.4-2.5,0.7-3.9c0-0.4,0-0.4,0-0.7c0.4-1.4,0.7-2.8,1.1-4.2l0,0l0,0c1.8-5.7,4.6-11,8.1-15.5
	c0,0,0,0,0.4-0.4c0.7-1.1,1.4-2.1,2.5-2.8l0.4-0.4c2.5-2.5,4.9-4.9,7.8-7.1c0.4-0.4,0.7-0.7,1.4-1.1s1.4-1.1,2.1-1.4
	s1.1-0.7,1.8-1.1c0.7-0.4,1.4-0.7,2.1-1.1c0.7-0.4,1.8-0.7,2.5-1.1c0.7-0.4,1.1-0.7,1.8-0.7c1.4-0.7,2.8-1.1,4.2-1.4
	c0.4,0,1.1-0.4,1.4-0.4c1.1-0.4,2.1-0.7,3.2-0.7c0.7,0,1.1-0.4,1.8-0.4c1.1-0.4,2.1-0.4,3.5-0.4c0.4,0,1.1,0,1.4-0.4
	c1.8,0,3.2-0.4,4.9-0.4s3.5,0,4.9,0.4c0.4,0,1.1,0,1.4,0.4c1.1,0,2.1,0.4,3.5,0.4c0.7,0,1.1,0.4,1.8,0.4c1.1,0.4,2.1,0.4,3.2,0.7
	c0.4,0,1.1,0.4,1.4,0.4c1.4,0.4,2.8,1.1,4.2,1.4c0.7,0.4,1.1,0.4,1.8,0.7s1.8,0.7,2.5,1.1s1.4,0.7,2.1,1.1c0.7,0.4,1.4,0.7,1.8,1.1
	c0.7,0.4,1.4,1.1,2.1,1.4c0.4,0.4,0.7,0.7,1.4,1.1c2.8,2.1,5.3,4.6,7.8,7.1l0.4,0.4c0.7,1.1,1.8,1.8,2.5,2.8c0,0,0,0.4,0.4,0.4
	c3.2,4.2,6,9.2,7.8,14.1l0,0c0,0.4,0.4,0.7,0.4,1.1c0.7,2.5,1.4,4.9,2.1,7.4l0,0c0.4,1.1,0.4,2.1,0.4,3.2l0,0c0,0.7,0,1.1,0.4,1.8
	l0,0c0,1.8,0.4,3.5,0.4,4.9c0,30-24.4,54.4-54.4,54.4c-30,0-54.4-24.4-54.4-54.4C217.5,272.5,217.5,270.8,217.8,269.4z M380.7,372.1
	c0,6-4.9,11-11,11H174c-6,0-11-4.9-11-11V253.5h24.4c-1.8,6.7-2.5,13.8-2.5,20.8c0,48,38.9,86.9,86.9,86.9s86.9-38.9,86.9-86.9
	c0-7.4-1.1-14.1-2.5-20.8h24.4L380.7,372.1L380.7,372.1z"/>
</svg>
