<?xml version="1.0" encoding="utf-8"?>
<!-- Generator: Adobe Illustrator 18.1.1, SVG Export Plug-In . SVG Version: 6.00 Build 0)  -->
<svg version="1.1" id="Layer_1" xmlns="http://www.w3.org/2000/svg" xmlns:xlink="http://www.w3.org/1999/xlink" x="0px" y="0px"
	 viewBox="0 0 540 540" enable-background="new 0 0 540 540" xml:space="preserve">
<path fill="#FFFFFF" d="M413.9,188.1c-10.4,4.6-21.6,7.8-33.3,9.1c11.9-7.2,21.2-18.5,25.5-32.1c-11.2,6.7-23.6,11.5-36.9,14.1
	c-10.7-11.2-25.7-18.3-42.4-18.3c-37.5,0-65,34.9-56.6,71.3c-48.3-2.4-91.1-25.5-119.6-60.6c-15.1,26-7.9,60.2,17.9,77.5
	c-9.6-0.3-18.4-3-26.3-7.2c-0.6,27,18.6,52.1,46.6,57.6c-8.2,2.2-17.1,2.8-26.2,1c7.4,23.1,28.8,39.8,54.2,40.3
	c-24.4,19.1-55.1,27.6-86,24.1c25.7,16.5,56.1,26,89,26c107.7,0,168.6-91.1,164.9-172.6C396.4,209.9,406.2,199.7,413.9,188.1z"/>
</svg>
