<?xml version="1.0" encoding="utf-8"?><svg width="560" height="560" viewBox="0 0 560 560" xmlns="http://www.w3.org/2000/svg" xmlns:xlink="http://www.w3.org/1999/xlink"><svg viewBox="-90 -90 720 720" width="40" height="40" id="bolt"><style>.ast0{display:none}.ast1{display:inline}.ast2{fill:#fdf8f4}.ast3{fill-rule:evenodd;clip-rule:evenodd;fill:#f60}.ast4{fill:#f60}</style><g id="aLayer_1" class="ast0"><path d="M227.6 151c0-4.1.4-6.5 7.3-6.5h93c16.2 0 25.2 13.8 31.6 39.8l5.3 20.7h15.8c2.8-58.9 5.3-84.5 5.3-84.5s-39.8 4.4-63.4 4.4H203.7l-63.7-2V140l21.5 4.1c15 2.8 18.7 6.1 19.9 19.9 0 0 1.3 40.6 1.3 107.6s-1.3 107.2-1.3 107.2c0 12.2-4.9 16.7-19.9 19.5l-21.5 4.1v17.1l63.7-2h106.4c23.9 0 79.6 2 79.6 2 1.3-14.7 9.4-80.8 10.5-88.1h-15l-16 36.1C356.6 395.9 338.3 398 318 398h-60.5c-20.2 0-30.1-8.1-30.1-25.6v-92.6s45 0 59.7 1.3c11.4.8 18.2 4.1 21.9 19.9l5 21h17.5l-1.3-53.2 2.4-53.6h-17.5l-5.7 23.5c-3.7 15.4-6.1 18.2-21.9 19.9-20.7 2-60.1 1.6-60.1 1.6V151h.2z"/><g class="ast1"><path class="ast2" d="M267.9 355.5c8.4 0 16.7.1 25.1-.1 9.6-.2 19.2-6.9 22.3-16.1 1.4-4.1 2.1-8.5 2.5-12.9.9-12.2 3.6-24 9.3-34.8 5.4-10.2 11.2-20.2 17-30.3 4.7-8.2 8.6-16.8 10.9-26 2.9-11.6 2.9-23.4 1-35.2-2.3-14.8-8.1-28.1-17.2-40-10.7-14-24.6-23.7-41.1-29.7-14.6-5.3-29.5-6.1-44.7-3.8-9 1.4-17.4 4.7-25.4 9-14.6 7.8-26.3 18.7-34.8 32.8-10 16.5-13.9 34.4-12.4 53.6.4 5.2 1 10.4 2.6 15.4 3.1 9.8 7.9 18.8 12.8 27.7 4.9 9 10.3 17.8 14.8 27 5.3 10.7 8.8 21.9 8.3 34.1-.4 8.4 2.4 15.7 8.3 21.8 4.6 4.7 9.8 7.7 16.6 7.5 8.1-.1 16.1 0 24.1 0zm.8 61.8v-.1h4.1c6.5 0 11-3.9 12-10.3.2-1.1.6-1.3 1.6-1.3 1.8 0 3.7.1 5.5 0 3.5-.2 5.8-2.6 5.7-6-.1-3.2-2.6-5.6-6-5.6h-45.9c-3.5 0-6 2.4-6 5.7 0 3.3 2.4 5.7 5.9 5.8 1.7.1 3.5.1 5.2 0 1.3-.1 1.7.4 1.9 1.7.6 4.9 4.2 8.8 9.1 9.6 2.2.4 4.6.3 6.9.5zm0-28.3h30.8c4.3-.1 7-4.1 5.5-7.9-1-2.5-3-3.7-6.3-3.7h-60.3c-2.6 0-4.6.9-5.8 3.4-1.9 4 1 8.2 5.7 8.2h30.4zm0-16.7c10.3 0 20.5 0 30.8-.1 1.2 0 2.5-.5 3.5-1.1 2.1-1.4 2.8-4 2.1-6.5-.8-2.4-2.9-3.9-5.8-3.9h-61.1c-3.6 0-6.2 2.4-6.2 5.7 0 3.3 2.6 5.8 6.3 5.8 10.1.1 20.3.1 30.4.1z"/><path class="ast3" d="M267.9 355.5c-8 0-16.1-.2-24.1 0-6.8.2-12-2.8-16.6-7.5-6-6.1-8.7-13.4-8.3-21.8.5-12.2-3-23.4-8.3-34.1-4.5-9.2-9.9-18-14.8-27s-9.7-17.9-12.8-27.7c-1.6-5-2.2-10.2-2.6-15.4-1.5-19.2 2.4-37.1 12.4-53.6 8.5-14.1 20.3-25 34.8-32.8 8-4.3 16.4-7.7 25.4-9 15.2-2.3 30.1-1.5 44.7 3.8 16.5 6 30.4 15.7 41.1 29.7 9 11.9 14.8 25.2 17.2 40 1.9 11.8 1.8 23.5-1 35.2-2.3 9.2-6.2 17.8-10.9 26-5.7 10-11.5 20.1-17 30.3-5.7 10.8-8.4 22.6-9.3 34.8-.3 4.3-1.1 8.8-2.5 12.9-3.1 9.2-12.7 15.9-22.3 16.1-8.3.2-16.7.1-25.1.1zm16.1-11.8c3.6 0 6.9.1 10.3 0 1.4-.1 2.9-.5 4-1.3 3.9-2.6 6.9-5.8 7.4-10.8.2-2.5.8-5.1.9-7.6.8-13.1 4.1-25.7 10.2-37.3 5.7-10.9 11.8-21.5 18-32.1 8.9-15.5 12.9-32 10.3-49.9-1.3-8.8-3.7-17.3-7.8-25.2-11.9-23-31-36.6-56.1-41.3-16.3-3-32.2-.7-47.1 7.3-13.7 7.3-24.7 17.4-32.4 31-6.8 12-10.5 24.9-9.9 38.8.2 5.4.6 10.9 1.7 16.2 1.9 9.2 6.6 17.3 11 25.4 5.5 10.1 11.3 20.1 16.6 30.3 4.5 8.7 7.6 18.1 8.9 27.8.6 4.6.5 9.4.6 14 .2 6.6 4.1 10.8 9.1 14.3.2.2.5.3.8.3 4.6.3 43.5-.3 43.5.1zM268.7 417.3c-2.3-.1-4.6 0-6.9-.4-4.9-.8-8.5-4.7-9.1-9.6-.2-1.3-.5-1.8-1.9-1.7-1.7.1-3.5.1-5.2 0-3.5-.1-5.9-2.5-5.9-5.8s2.5-5.7 6-5.7h45.9c3.4 0 5.9 2.4 6 5.6.1 3.4-2.2 5.8-5.7 6-1.8.1-3.7.1-5.5 0-1 0-1.5.2-1.6 1.3-.9 6.4-5.5 10.2-12 10.3h-4.1c0-.1 0-.1 0 0zM268.7 389h-30.4c-4.7 0-7.6-4.2-5.7-8.2 1.1-2.4 3.2-3.4 5.8-3.4h60.3c3.3 0 5.3 1.2 6.3 3.7 1.5 3.8-1.2 7.9-5.5 7.9-5.3.1-10.7 0-16 0h-14.8zM268.7 372.3h-30.5c-3.7 0-6.3-2.5-6.3-5.8s2.6-5.7 6.2-5.7h61.1c2.9 0 5 1.5 5.8 3.9.8 2.5.1 5-2.1 6.5-1 .6-2.3 1.1-3.5 1.1h-30.7z"/><g><path class="ast4" d="M260.9 262.8h6.7c14.5 0 21.7-9.1 21.7-19.7 0-10.4-7.2-18.3-18.1-18.3-10.4 0-16.2 4.6-20.9 13.4l-14-8.1c5.8-13.5 18.1-20.9 34.9-20.9 22.2 0 35.9 15.1 35.9 33.9 0 18.2-11.5 30.8-29.9 32.8v15.6h-16.3v-28.7zm-3.8 53.7c0-6.8 5.5-11.6 11.6-11.6 6.2 0 11.6 4.8 11.6 11.6s-5.5 11.6-11.6 11.6c-6.1.1-11.6-4.7-11.6-11.6z"/></g></g></g><g id="aLayer_2"><path class="ast4" d="M242.9 365.4c.3.2.6.3 1 .5 1-1.3 2.2-2.5 3.1-3.9 21.5-32.6 43-65.2 64.3-97.9 1.5-2.2 2.9-6.3 1.8-7.9-1.3-2-5.2-3-7.9-3.1-12.3-.3-24.5-.1-36.8-.1-10.5 0-13.3-3.9-10.1-14 6-18.6 12-37.1 18-55.7.6-1.8 1-3.7 1.5-5.5-2.3 1.4-3.6 3.2-4.7 5-16.3 26.9-32.6 53.8-48.7 80.7-2.1 3.6-6.1 7.2-3.5 11.7 2.5 4.5 7.7 2.9 11.9 2.9 9.3.2 18.7-.1 28 .2 8.1.2 10.6 4.3 8.2 12l-.9 2.4c-7.6 21.7-15.2 43.3-22.7 65-1 2.6-1.7 5.2-2.5 7.7z"/><path class="ast4" d="M266.6 403.6c-72.7 0-131.8-59.1-131.8-131.8 0-72.7 59.1-131.8 131.8-131.8s131.8 59.1 131.8 131.8c0 72.7-59.1 131.8-131.8 131.8zm0-251.4c-66 0-119.6 53.7-119.6 119.6 0 66 53.7 119.6 119.6 119.6s119.6-53.7 119.6-119.6c0-66-53.6-119.6-119.6-119.6z"/></g></svg><svg viewBox="-90 -90 720 720" width="40" height="40" id="bulb" x="40" y="40"><path fill="#FFF" d="M267.9 355.5c8.4 0 16.7.1 25.1-.1 9.6-.2 19.2-6.9 22.3-16.1 1.4-4.1 2.1-8.5 2.5-12.9.9-12.2 3.6-24 9.3-34.8 5.4-10.2 11.2-20.2 17-30.3 4.7-8.2 8.6-16.8 10.9-26 2.9-11.6 2.9-23.4 1-35.2-2.3-14.8-8.1-28.1-17.2-40-10.7-14-24.6-23.7-41.1-29.7-14.6-5.3-29.5-6.1-44.7-3.8-9 1.4-17.4 4.7-25.4 9-14.6 7.8-26.3 18.7-34.8 32.8-10 16.5-13.9 34.4-12.4 53.6.4 5.2 1 10.4 2.6 15.4 3.1 9.8 7.9 18.8 12.8 27.7 4.9 9 10.3 17.8 14.8 27 5.3 10.7 8.8 21.9 8.3 34.1-.4 8.4 2.4 15.7 8.3 21.8 4.6 4.7 9.8 7.7 16.6 7.5 8.1-.1 16.1 0 24.1 0zm.8 61.8v-.1h4.1c6.5 0 11-3.9 12-10.3.2-1.1.6-1.3 1.6-1.3 1.8 0 3.7.1 5.5 0 3.5-.2 5.8-2.6 5.7-6-.1-3.2-2.6-5.6-6-5.6h-45.9c-3.5 0-6 2.4-6 5.7 0 3.3 2.4 5.7 5.9 5.8 1.7.1 3.5.1 5.2 0 1.3-.1 1.7.4 1.9 1.7.6 4.9 4.2 8.8 9.1 9.6 2.2.4 4.6.3 6.9.5zm0-28.3h30.8c4.3-.1 7-4.1 5.5-7.9-1-2.5-3-3.7-6.3-3.7h-60.3c-2.6 0-4.6.9-5.8 3.4-1.9 4 1 8.2 5.7 8.2h30.4zm0-16.7c10.3 0 20.5 0 30.8-.1 1.2 0 2.5-.5 3.5-1.1 2.1-1.4 2.8-4 2.1-6.5-.8-2.4-2.9-3.9-5.8-3.9h-61.1c-3.6 0-6.2 2.4-6.2 5.7 0 3.3 2.6 5.8 6.3 5.8 10.1.1 20.3.1 30.4.1z"/><path fill="#F60" d="M267.9 355.5c-8 0-16.1-.2-24.1 0-6.8.2-12-2.8-16.6-7.5-6-6.1-8.7-13.4-8.3-21.8.5-12.2-3-23.4-8.3-34.1-4.5-9.2-9.9-18-14.8-27s-9.7-17.9-12.8-27.7c-1.6-5-2.2-10.2-2.6-15.4-1.5-19.2 2.4-37.1 12.4-53.6 8.5-14.1 20.3-25 34.8-32.8 8-4.3 16.4-7.7 25.4-9 15.2-2.3 30.1-1.5 44.7 3.8 16.5 6 30.4 15.7 41.1 29.7 9 11.9 14.8 25.2 17.2 40 1.9 11.8 1.8 23.5-1 35.2-2.3 9.2-6.2 17.8-10.9 26-5.7 10-11.5 20.1-17 30.3-5.7 10.8-8.4 22.6-9.3 34.8-.3 4.3-1.1 8.8-2.5 12.9-3.1 9.2-12.7 15.9-22.3 16.1-8.3.2-16.7.1-25.1.1zm66.9-100.9c8.9-15.5 12.9-32 10.3-49.9-1.3-8.8-3.7-17.3-7.8-25.2-11.9-23-31-36.6-56.1-41.3-16.3-3-32.2-.7-47.1 7.3-13.7 7.3-24.7 17.4-32.4 31-6.8 12-10.5 24.9-9.9 38.8.2 5.4.6 10.9 1.7 16.2 1.9 9.2 6.6 17.3 11 25.4 5.5 10.1 11.3 20.1 16.6 30.3 4.5 8.7 7.6 18.1 8.9 27.8.6 4.6.5 9.4.6 14 .2 6.6 4.1 10.8 9.1 14.3.2.2.5.3.8.3 4.6.3 43.5-.3 43.5.1 3.6 0 6.9.1 10.3 0 1.4-.1 2.9-.5 4-1.3 3.9-2.6 6.9-5.8 7.4-10.8.2-2.5.8-5.1.9-7.6.8-13.1 4.1-25.7 10.2-37.3M268.7 417.3c-2.3-.1-4.6 0-6.9-.4-4.9-.8-8.5-4.7-9.1-9.6-.2-1.3-.5-1.8-1.9-1.7-1.7.1-3.5.1-5.2 0-3.5-.1-5.9-2.5-5.9-5.8s2.5-5.7 6-5.7h45.9c3.4 0 5.9 2.4 6 5.6.1 3.4-2.2 5.8-5.7 6-1.8.1-3.7.1-5.5 0-1 0-1.5.2-1.6 1.3-.9 6.4-5.5 10.2-12 10.3h-4.1c0-.1 0-.1 0 0zM268.7 389h-30.4c-4.7 0-7.6-4.2-5.7-8.2 1.1-2.4 3.2-3.4 5.8-3.4h60.3c3.3 0 5.3 1.2 6.3 3.7 1.5 3.8-1.2 7.9-5.5 7.9-5.3.1-10.7 0-16 0h-14.8zM268.7 372.3h-30.5c-3.7 0-6.3-2.5-6.3-5.8s2.6-5.7 6.2-5.7h61.1c2.9 0 5 1.5 5.8 3.9.8 2.5.1 5-2.1 6.5-1 .6-2.3 1.1-3.5 1.1h-30.7z"/><g><path fill="#F60" d="M260.9 262.8h6.7c14.5 0 21.7-9.1 21.7-19.7 0-10.4-7.2-18.3-18.1-18.3-10.4 0-16.2 4.6-20.9 13.4l-14-8.1c5.8-13.5 18.1-20.9 34.9-20.9 22.2 0 35.9 15.1 35.9 33.9 0 18.2-11.5 30.8-29.9 32.8v15.6h-16.3v-28.7zm-3.8 53.7c0-6.8 5.5-11.6 11.6-11.6 6.2 0 11.6 4.8 11.6 11.6s-5.5 11.6-11.6 11.6c-6.1.1-11.6-4.7-11.6-11.6z"/></g></svg><svg viewBox="-90 -90 720 720" width="40" height="40" id="etsy" x="80" y="80"><path fill="#52B5F6" d="M227.6 151c0-4.1.4-6.5 7.3-6.5h93c16.2 0 25.2 13.8 31.6 39.8l5.3 20.7h15.8c2.8-58.9 5.3-84.5 5.3-84.5s-39.8 4.4-63.4 4.4H203.7l-63.7-2V140l21.5 4.1c15 2.8 18.7 6.1 19.9 19.9 0 0 1.3 40.6 1.3 107.6s-1.3 107.2-1.3 107.2c0 12.2-4.9 16.7-19.9 19.5l-21.5 4.1v17.1l63.7-2h106.4c23.9 0 79.6 2 79.6 2 1.3-14.7 9.4-80.8 10.5-88.1h-15l-16 36.1C356.6 395.9 338.3 398 318 398h-60.5c-20.2 0-30.1-8.1-30.1-25.6v-92.6s45 0 59.7 1.3c11.4.8 18.2 4.1 21.9 19.9l5 21h17.5l-1.3-53.2 2.4-53.6h-17.5l-5.7 23.5c-3.7 15.4-6.1 18.2-21.9 19.9-20.7 2-60.1 1.6-60.1 1.6V151h.2z"/></svg><svg viewBox="-90 -90 720 720" width="40" height="40" id="etsy-gray" x="120" y="120"><path fill="#999" d="M227.6 151c0-4.1.4-6.5 7.3-6.5h93c16.2 0 25.2 13.8 31.6 39.8l5.3 20.7h15.8c2.8-58.9 5.3-84.5 5.3-84.5s-39.8 4.4-63.4 4.4H203.7l-63.7-2V140l21.5 4.1c15 2.8 18.7 6.1 19.9 19.9 0 0 1.3 40.6 1.3 107.6s-1.3 107.2-1.3 107.2c0 12.2-4.9 16.7-19.9 19.5l-21.5 4.1v17.1l63.7-2h106.4c23.9 0 79.6 2 79.6 2 1.3-14.7 9.4-80.8 10.5-88.1h-15l-16 36.1C356.6 395.9 338.3 398 318 398h-60.5c-20.2 0-30.1-8.1-30.1-25.6v-92.6s45 0 59.7 1.3c11.4.8 18.2 4.1 21.9 19.9l5 21h17.5l-1.3-53.2 2.4-53.6h-17.5l-5.7 23.5c-3.7 15.4-6.1 18.2-21.9 19.9-20.7 2-60.1 1.6-60.1 1.6V151h.2z"/></svg><svg viewBox="-90 -90 720 720" width="40" height="40" id="etsyHover" x="160" y="160"><path fill="#FFF" d="M227.6 151c0-4.1.4-6.5 7.3-6.5h93c16.2 0 25.2 13.8 31.6 39.8l5.3 20.7h15.8c2.8-58.9 5.3-84.5 5.3-84.5s-39.8 4.4-63.4 4.4H203.7l-63.7-2V140l21.5 4.1c15 2.8 18.7 6.1 19.9 19.9 0 0 1.3 40.6 1.3 107.6s-1.3 107.2-1.3 107.2c0 12.2-4.9 16.7-19.9 19.5l-21.5 4.1v17.1l63.7-2h106.4c23.9 0 79.6 2 79.6 2 1.3-14.7 9.4-80.8 10.5-88.1h-15l-16 36.1C356.6 395.9 338.3 398 318 398h-60.5c-20.2 0-30.1-8.1-30.1-25.6v-92.6s45 0 59.7 1.3c11.4.8 18.2 4.1 21.9 19.9l5 21h17.5l-1.3-53.2 2.4-53.6h-17.5l-5.7 23.5c-3.7 15.4-6.1 18.2-21.9 19.9-20.7 2-60.1 1.6-60.1 1.6V151h.2z"/></svg><svg viewBox="-90 -90 720 720" width="40" height="40" id="facebook" x="200" y="200"><path fill="#52B5F6" d="M297.3 124c-32.2 0-58.4 26.1-58.4 58.4v35h-46.7V264h46.7v163.4h46.7V264h52.5l11.7-46.7h-64.2v-35c0-6.4 5.3-11.7 11.7-11.7h58.4V124h-58.4z"/></svg><svg viewBox="-90 -90 720 720" width="40" height="40" id="facebook-gray" x="240" y="240"><path fill="#999" d="M297.3 124c-32.2 0-58.4 26.1-58.4 58.4v35h-46.7V264h46.7v163.4h46.7V264h52.5l11.7-46.7h-64.2v-35c0-6.4 5.3-11.7 11.7-11.7h58.4V124h-58.4z"/></svg><svg viewBox="-90 -90 720 720" width="40" height="40" id="facebookHover" x="280" y="280"><path fill="#FFF" d="M297.3 124c-32.2 0-58.4 26.1-58.4 58.4v35h-46.7V264h46.7v163.4h46.7V264h52.5l11.7-46.7h-64.2v-35c0-6.4 5.3-11.7 11.7-11.7h58.4V124h-58.4z"/></svg><svg viewBox="-90 -90 720 720" width="40" height="40" id="pinterest" x="320" y="320"><path fill="#52B5F6" d="M283 119.7c-82.8 0-124.4 59.3-124.4 108.8 0 30 11.3 56.5 35.7 66.6 4 1.6 7.6.1 8.8-4.4.9-3.1 2.7-10.7 3.5-13.9 1.2-4.4.7-5.9-2.5-9.7-7-8.2-11.5-19-11.5-34.1 0-44 33-83.4 85.8-83.4 46.8 0 72.4 28.6 72.4 66.7 0 50.2-22.2 92.6-55.2 92.6-18.2 0-31.9-15-27.5-33.5 5.2-22.1 15.4-45.8 15.4-61.8 0-14.3-7.7-26.2-23.5-26.2-18.6 0-33.6 19.3-33.6 45.1 0 16.4 5.6 27.6 5.6 27.6s-19.1 80.7-22.4 94.9c-6.7 28.2-1 62.7-.5 66.2.2 2 3 2.6 4.2 1 1.7-2.2 23.9-29.7 31.5-57 2.1-7.8 12.2-47.9 12.2-47.9 6 11.6 23.7 21.7 42.5 21.7 56 0 94-51.1 94-119.4-.2-51.8-44-99.9-110.5-99.9z"/></svg><svg viewBox="-90 -90 720 720" width="40" height="40" id="pinterest-gray" x="360" y="360"><path fill="#999" d="M283 119.7c-82.8 0-124.4 59.3-124.4 108.8 0 30 11.3 56.5 35.7 66.6 4 1.6 7.6.1 8.8-4.4.9-3.1 2.7-10.7 3.5-13.9 1.2-4.4.7-5.9-2.5-9.7-7-8.2-11.5-19-11.5-34.1 0-44 33-83.4 85.8-83.4 46.8 0 72.4 28.6 72.4 66.7 0 50.2-22.2 92.6-55.2 92.6-18.2 0-31.9-15-27.5-33.5 5.2-22.1 15.4-45.8 15.4-61.8 0-14.3-7.7-26.2-23.5-26.2-18.6 0-33.6 19.3-33.6 45.1 0 16.4 5.6 27.6 5.6 27.6s-19.1 80.7-22.4 94.9c-6.7 28.2-1 62.7-.5 66.2.2 2 3 2.6 4.2 1 1.7-2.2 23.9-29.7 31.5-57 2.1-7.8 12.2-47.9 12.2-47.9 6 11.6 23.7 21.7 42.5 21.7 56 0 94-51.1 94-119.4-.2-51.8-44-99.9-110.5-99.9z"/></svg><svg viewBox="-90 -90 720 720" width="40" height="40" id="pinterestHover" x="400" y="400"><path fill="#FFF" d="M283 119.7c-82.8 0-124.4 59.3-124.4 108.8 0 30 11.3 56.5 35.7 66.6 4 1.6 7.6.1 8.8-4.4.9-3.1 2.7-10.7 3.5-13.9 1.2-4.4.7-5.9-2.5-9.7-7-8.2-11.5-19-11.5-34.1 0-44 33-83.4 85.8-83.4 46.8 0 72.4 28.6 72.4 66.7 0 50.2-22.2 92.6-55.2 92.6-18.2 0-31.9-15-27.5-33.5 5.2-22.1 15.4-45.8 15.4-61.8 0-14.3-7.7-26.2-23.5-26.2-18.6 0-33.6 19.3-33.6 45.1 0 16.4 5.6 27.6 5.6 27.6s-19.1 80.7-22.4 94.9c-6.7 28.2-1 62.7-.5 66.2.2 2 3 2.6 4.2 1 1.7-2.2 23.9-29.7 31.5-57 2.1-7.8 12.2-47.9 12.2-47.9 6 11.6 23.7 21.7 42.5 21.7 56 0 94-51.1 94-119.4-.2-51.8-44-99.9-110.5-99.9z"/></svg><svg viewBox="-90 -90 720 720" width="40" height="40" id="twitter" x="440" y="440"><path fill="#52B5F6" d="M413.9 188.1c-10.4 4.6-21.6 7.8-33.3 9.1 11.9-7.2 21.2-18.5 25.5-32.1-11.2 6.7-23.6 11.5-36.9 14.1-10.7-11.2-25.7-18.3-42.4-18.3-37.5 0-65 34.9-56.6 71.3-48.3-2.4-91.1-25.5-119.6-60.6-15.1 26-7.9 60.2 17.9 77.5-9.6-.3-18.4-3-26.3-7.2-.6 27 18.6 52.1 46.6 57.6-8.2 2.2-17.1 2.8-26.2 1 7.4 23.1 28.8 39.8 54.2 40.3-24.4 19.1-55.1 27.6-86 24.1 25.7 16.5 56.1 26 89 26 107.7 0 168.6-91.1 164.9-172.6 11.7-8.4 21.5-18.6 29.2-30.2z"/></svg><svg viewBox="-90 -90 720 720" width="40" height="40" id="twitter-gray" x="480" y="480"><path fill="#999" d="M413.9 188.1c-10.4 4.6-21.6 7.8-33.3 9.1 11.9-7.2 21.2-18.5 25.5-32.1-11.2 6.7-23.6 11.5-36.9 14.1-10.7-11.2-25.7-18.3-42.4-18.3-37.5 0-65 34.9-56.6 71.3-48.3-2.4-91.1-25.5-119.6-60.6-15.1 26-7.9 60.2 17.9 77.5-9.6-.3-18.4-3-26.3-7.2-.6 27 18.6 52.1 46.6 57.6-8.2 2.2-17.1 2.8-26.2 1 7.4 23.1 28.8 39.8 54.2 40.3-24.4 19.1-55.1 27.6-86 24.1 25.7 16.5 56.1 26 89 26 107.7 0 168.6-91.1 164.9-172.6 11.7-8.4 21.5-18.6 29.2-30.2z"/></svg><svg viewBox="-90 -90 720 720" width="40" height="40" id="twitterHover" x="520" y="520"><path fill="#FFF" d="M413.9 188.1c-10.4 4.6-21.6 7.8-33.3 9.1 11.9-7.2 21.2-18.5 25.5-32.1-11.2 6.7-23.6 11.5-36.9 14.1-10.7-11.2-25.7-18.3-42.4-18.3-37.5 0-65 34.9-56.6 71.3-48.3-2.4-91.1-25.5-119.6-60.6-15.1 26-7.9 60.2 17.9 77.5-9.6-.3-18.4-3-26.3-7.2-.6 27 18.6 52.1 46.6 57.6-8.2 2.2-17.1 2.8-26.2 1 7.4 23.1 28.8 39.8 54.2 40.3-24.4 19.1-55.1 27.6-86 24.1 25.7 16.5 56.1 26 89 26 107.7 0 168.6-91.1 164.9-172.6 11.7-8.4 21.5-18.6 29.2-30.2z"/></svg></svg>