<?xml version="1.0" encoding="utf-8"?><!DOCTYPE svg PUBLIC "-//W3C//DTD SVG 1.1//EN" "http://www.w3.org/Graphics/SVG/1.1/DTD/svg11.dtd"><svg width="840" height="840" viewBox="0 0 840 840" xmlns="http://www.w3.org/2000/svg" xmlns:xlink="http://www.w3.org/1999/xlink"><svg viewBox="-90 -90 720 720" width="40" height="40" id="bolt"><style>.ast0{display:none}.ast1{display:inline}.ast2{fill:#fdf8f4}.ast3{fill-rule:evenodd;clip-rule:evenodd;fill:#f60}.ast4{fill:#f60}</style><g id="aLayer_1" class="ast0"><path d="M227.6 151c0-4.1.4-6.5 7.3-6.5h93c16.2 0 25.2 13.8 31.6 39.8l5.3 20.7h15.8c2.8-58.9 5.3-84.5 5.3-84.5s-39.8 4.4-63.4 4.4H203.7l-63.7-2V140l21.5 4.1c15 2.8 18.7 6.1 19.9 19.9 0 0 1.3 40.6 1.3 107.6s-1.3 107.2-1.3 107.2c0 12.2-4.9 16.7-19.9 19.5l-21.5 4.1v17.1l63.7-2h106.4c23.9 0 79.6 2 79.6 2 1.3-14.7 9.4-80.8 10.5-88.1h-15l-16 36.1C356.6 395.9 338.3 398 318 398h-60.5c-20.2 0-30.1-8.1-30.1-25.6v-92.6s45 0 59.7 1.3c11.4.8 18.2 4.1 21.9 19.9l5 21h17.5l-1.3-53.2 2.4-53.6h-17.5l-5.7 23.5c-3.7 15.4-6.1 18.2-21.9 19.9-20.7 2-60.1 1.6-60.1 1.6V151h.2z"/><g class="ast1"><path class="ast2" d="M267.9 355.5c8.4 0 16.7.1 25.1-.1 9.6-.2 19.2-6.9 22.3-16.1 1.4-4.1 2.1-8.5 2.5-12.9.9-12.2 3.6-24 9.3-34.8 5.4-10.2 11.2-20.2 17-30.3 4.7-8.2 8.6-16.8 10.9-26 2.9-11.6 2.9-23.4 1-35.2-2.3-14.8-8.1-28.1-17.2-40-10.7-14-24.6-23.7-41.1-29.7-14.6-5.3-29.5-6.1-44.7-3.8-9 1.4-17.4 4.7-25.4 9-14.6 7.8-26.3 18.7-34.8 32.8-10 16.5-13.9 34.4-12.4 53.6.4 5.2 1 10.4 2.6 15.4 3.1 9.8 7.9 18.8 12.8 27.7 4.9 9 10.3 17.8 14.8 27 5.3 10.7 8.8 21.9 8.3 34.1-.4 8.4 2.4 15.7 8.3 21.8 4.6 4.7 9.8 7.7 16.6 7.5 8.1-.1 16.1 0 24.1 0zm.8 61.8v-.1h4.1c6.5 0 11-3.9 12-10.3.2-1.1.6-1.3 1.6-1.3 1.8 0 3.7.1 5.5 0 3.5-.2 5.8-2.6 5.7-6-.1-3.2-2.6-5.6-6-5.6h-45.9c-3.5 0-6 2.4-6 5.7 0 3.3 2.4 5.7 5.9 5.8 1.7.1 3.5.1 5.2 0 1.3-.1 1.7.4 1.9 1.7.6 4.9 4.2 8.8 9.1 9.6 2.2.4 4.6.3 6.9.5zm0-28.3h30.8c4.3-.1 7-4.1 5.5-7.9-1-2.5-3-3.7-6.3-3.7h-60.3c-2.6 0-4.6.9-5.8 3.4-1.9 4 1 8.2 5.7 8.2h30.4zm0-16.7c10.3 0 20.5 0 30.8-.1 1.2 0 2.5-.5 3.5-1.1 2.1-1.4 2.8-4 2.1-6.5-.8-2.4-2.9-3.9-5.8-3.9h-61.1c-3.6 0-6.2 2.4-6.2 5.7 0 3.3 2.6 5.8 6.3 5.8 10.1.1 20.3.1 30.4.1z"/><path class="ast3" d="M267.9 355.5c-8 0-16.1-.2-24.1 0-6.8.2-12-2.8-16.6-7.5-6-6.1-8.7-13.4-8.3-21.8.5-12.2-3-23.4-8.3-34.1-4.5-9.2-9.9-18-14.8-27s-9.7-17.9-12.8-27.7c-1.6-5-2.2-10.2-2.6-15.4-1.5-19.2 2.4-37.1 12.4-53.6 8.5-14.1 20.3-25 34.8-32.8 8-4.3 16.4-7.7 25.4-9 15.2-2.3 30.1-1.5 44.7 3.8 16.5 6 30.4 15.7 41.1 29.7 9 11.9 14.8 25.2 17.2 40 1.9 11.8 1.8 23.5-1 35.2-2.3 9.2-6.2 17.8-10.9 26-5.7 10-11.5 20.1-17 30.3-5.7 10.8-8.4 22.6-9.3 34.8-.3 4.3-1.1 8.8-2.5 12.9-3.1 9.2-12.7 15.9-22.3 16.1-8.3.2-16.7.1-25.1.1zm16.1-11.8c3.6 0 6.9.1 10.3 0 1.4-.1 2.9-.5 4-1.3 3.9-2.6 6.9-5.8 7.4-10.8.2-2.5.8-5.1.9-7.6.8-13.1 4.1-25.7 10.2-37.3 5.7-10.9 11.8-21.5 18-32.1 8.9-15.5 12.9-32 10.3-49.9-1.3-8.8-3.7-17.3-7.8-25.2-11.9-23-31-36.6-56.1-41.3-16.3-3-32.2-.7-47.1 7.3-13.7 7.3-24.7 17.4-32.4 31-6.8 12-10.5 24.9-9.9 38.8.2 5.4.6 10.9 1.7 16.2 1.9 9.2 6.6 17.3 11 25.4 5.5 10.1 11.3 20.1 16.6 30.3 4.5 8.7 7.6 18.1 8.9 27.8.6 4.6.5 9.4.6 14 .2 6.6 4.1 10.8 9.1 14.3.2.2.5.3.8.3 4.6.3 43.5-.3 43.5.1zM268.7 417.3c-2.3-.1-4.6 0-6.9-.4-4.9-.8-8.5-4.7-9.1-9.6-.2-1.3-.5-1.8-1.9-1.7-1.7.1-3.5.1-5.2 0-3.5-.1-5.9-2.5-5.9-5.8s2.5-5.7 6-5.7h45.9c3.4 0 5.9 2.4 6 5.6.1 3.4-2.2 5.8-5.7 6-1.8.1-3.7.1-5.5 0-1 0-1.5.2-1.6 1.3-.9 6.4-5.5 10.2-12 10.3h-4.1c0-.1 0-.1 0 0zM268.7 389h-30.4c-4.7 0-7.6-4.2-5.7-8.2 1.1-2.4 3.2-3.4 5.8-3.4h60.3c3.3 0 5.3 1.2 6.3 3.7 1.5 3.8-1.2 7.9-5.5 7.9-5.3.1-10.7 0-16 0h-14.8zM268.7 372.3h-30.5c-3.7 0-6.3-2.5-6.3-5.8s2.6-5.7 6.2-5.7h61.1c2.9 0 5 1.5 5.8 3.9.8 2.5.1 5-2.1 6.5-1 .6-2.3 1.1-3.5 1.1h-30.7z"/><g><path class="ast4" d="M260.9 262.8h6.7c14.5 0 21.7-9.1 21.7-19.7 0-10.4-7.2-18.3-18.1-18.3-10.4 0-16.2 4.6-20.9 13.4l-14-8.1c5.8-13.5 18.1-20.9 34.9-20.9 22.2 0 35.9 15.1 35.9 33.9 0 18.2-11.5 30.8-29.9 32.8v15.6h-16.3v-28.7zm-3.8 53.7c0-6.8 5.5-11.6 11.6-11.6 6.2 0 11.6 4.8 11.6 11.6s-5.5 11.6-11.6 11.6c-6.1.1-11.6-4.7-11.6-11.6z"/></g></g></g><g id="aLayer_2"><path class="ast4" d="M242.9 365.4c.3.2.6.3 1 .5 1-1.3 2.2-2.5 3.1-3.9 21.5-32.6 43-65.2 64.3-97.9 1.5-2.2 2.9-6.3 1.8-7.9-1.3-2-5.2-3-7.9-3.1-12.3-.3-24.5-.1-36.8-.1-10.5 0-13.3-3.9-10.1-14 6-18.6 12-37.1 18-55.7.6-1.8 1-3.7 1.5-5.5-2.3 1.4-3.6 3.2-4.7 5-16.3 26.9-32.6 53.8-48.7 80.7-2.1 3.6-6.1 7.2-3.5 11.7 2.5 4.5 7.7 2.9 11.9 2.9 9.3.2 18.7-.1 28 .2 8.1.2 10.6 4.3 8.2 12l-.9 2.4c-7.6 21.7-15.2 43.3-22.7 65-1 2.6-1.7 5.2-2.5 7.7z"/><path class="ast4" d="M266.6 403.6c-72.7 0-131.8-59.1-131.8-131.8 0-72.7 59.1-131.8 131.8-131.8s131.8 59.1 131.8 131.8c0 72.7-59.1 131.8-131.8 131.8zm0-251.4c-66 0-119.6 53.7-119.6 119.6 0 66 53.7 119.6 119.6 119.6s119.6-53.7 119.6-119.6c0-66-53.6-119.6-119.6-119.6z"/></g></svg><svg viewBox="-90 -90 720 720" width="40" height="40" id="bulb" x="40" y="40"><path fill="#FFF" d="M267.9 355.5c8.4 0 16.7.1 25.1-.1 9.6-.2 19.2-6.9 22.3-16.1 1.4-4.1 2.1-8.5 2.5-12.9.9-12.2 3.6-24 9.3-34.8 5.4-10.2 11.2-20.2 17-30.3 4.7-8.2 8.6-16.8 10.9-26 2.9-11.6 2.9-23.4 1-35.2-2.3-14.8-8.1-28.1-17.2-40-10.7-14-24.6-23.7-41.1-29.7-14.6-5.3-29.5-6.1-44.7-3.8-9 1.4-17.4 4.7-25.4 9-14.6 7.8-26.3 18.7-34.8 32.8-10 16.5-13.9 34.4-12.4 53.6.4 5.2 1 10.4 2.6 15.4 3.1 9.8 7.9 18.8 12.8 27.7 4.9 9 10.3 17.8 14.8 27 5.3 10.7 8.8 21.9 8.3 34.1-.4 8.4 2.4 15.7 8.3 21.8 4.6 4.7 9.8 7.7 16.6 7.5 8.1-.1 16.1 0 24.1 0zm.8 61.8v-.1h4.1c6.5 0 11-3.9 12-10.3.2-1.1.6-1.3 1.6-1.3 1.8 0 3.7.1 5.5 0 3.5-.2 5.8-2.6 5.7-6-.1-3.2-2.6-5.6-6-5.6h-45.9c-3.5 0-6 2.4-6 5.7 0 3.3 2.4 5.7 5.9 5.8 1.7.1 3.5.1 5.2 0 1.3-.1 1.7.4 1.9 1.7.6 4.9 4.2 8.8 9.1 9.6 2.2.4 4.6.3 6.9.5zm0-28.3h30.8c4.3-.1 7-4.1 5.5-7.9-1-2.5-3-3.7-6.3-3.7h-60.3c-2.6 0-4.6.9-5.8 3.4-1.9 4 1 8.2 5.7 8.2h30.4zm0-16.7c10.3 0 20.5 0 30.8-.1 1.2 0 2.5-.5 3.5-1.1 2.1-1.4 2.8-4 2.1-6.5-.8-2.4-2.9-3.9-5.8-3.9h-61.1c-3.6 0-6.2 2.4-6.2 5.7 0 3.3 2.6 5.8 6.3 5.8 10.1.1 20.3.1 30.4.1z"/><path fill="#F60" d="M267.9 355.5c-8 0-16.1-.2-24.1 0-6.8.2-12-2.8-16.6-7.5-6-6.1-8.7-13.4-8.3-21.8.5-12.2-3-23.4-8.3-34.1-4.5-9.2-9.9-18-14.8-27s-9.7-17.9-12.8-27.7c-1.6-5-2.2-10.2-2.6-15.4-1.5-19.2 2.4-37.1 12.4-53.6 8.5-14.1 20.3-25 34.8-32.8 8-4.3 16.4-7.7 25.4-9 15.2-2.3 30.1-1.5 44.7 3.8 16.5 6 30.4 15.7 41.1 29.7 9 11.9 14.8 25.2 17.2 40 1.9 11.8 1.8 23.5-1 35.2-2.3 9.2-6.2 17.8-10.9 26-5.7 10-11.5 20.1-17 30.3-5.7 10.8-8.4 22.6-9.3 34.8-.3 4.3-1.1 8.8-2.5 12.9-3.1 9.2-12.7 15.9-22.3 16.1-8.3.2-16.7.1-25.1.1zm66.9-100.9c8.9-15.5 12.9-32 10.3-49.9-1.3-8.8-3.7-17.3-7.8-25.2-11.9-23-31-36.6-56.1-41.3-16.3-3-32.2-.7-47.1 7.3-13.7 7.3-24.7 17.4-32.4 31-6.8 12-10.5 24.9-9.9 38.8.2 5.4.6 10.9 1.7 16.2 1.9 9.2 6.6 17.3 11 25.4 5.5 10.1 11.3 20.1 16.6 30.3 4.5 8.7 7.6 18.1 8.9 27.8.6 4.6.5 9.4.6 14 .2 6.6 4.1 10.8 9.1 14.3.2.2.5.3.8.3 4.6.3 43.5-.3 43.5.1 3.6 0 6.9.1 10.3 0 1.4-.1 2.9-.5 4-1.3 3.9-2.6 6.9-5.8 7.4-10.8.2-2.5.8-5.1.9-7.6.8-13.1 4.1-25.7 10.2-37.3M268.7 417.3c-2.3-.1-4.6 0-6.9-.4-4.9-.8-8.5-4.7-9.1-9.6-.2-1.3-.5-1.8-1.9-1.7-1.7.1-3.5.1-5.2 0-3.5-.1-5.9-2.5-5.9-5.8s2.5-5.7 6-5.7h45.9c3.4 0 5.9 2.4 6 5.6.1 3.4-2.2 5.8-5.7 6-1.8.1-3.7.1-5.5 0-1 0-1.5.2-1.6 1.3-.9 6.4-5.5 10.2-12 10.3h-4.1c0-.1 0-.1 0 0zM268.7 389h-30.4c-4.7 0-7.6-4.2-5.7-8.2 1.1-2.4 3.2-3.4 5.8-3.4h60.3c3.3 0 5.3 1.2 6.3 3.7 1.5 3.8-1.2 7.9-5.5 7.9-5.3.1-10.7 0-16 0h-14.8zM268.7 372.3h-30.5c-3.7 0-6.3-2.5-6.3-5.8s2.6-5.7 6.2-5.7h61.1c2.9 0 5 1.5 5.8 3.9.8 2.5.1 5-2.1 6.5-1 .6-2.3 1.1-3.5 1.1h-30.7z"/><g><path fill="#F60" d="M260.9 262.8h6.7c14.5 0 21.7-9.1 21.7-19.7 0-10.4-7.2-18.3-18.1-18.3-10.4 0-16.2 4.6-20.9 13.4l-14-8.1c5.8-13.5 18.1-20.9 34.9-20.9 22.2 0 35.9 15.1 35.9 33.9 0 18.2-11.5 30.8-29.9 32.8v15.6h-16.3v-28.7zm-3.8 53.7c0-6.8 5.5-11.6 11.6-11.6 6.2 0 11.6 4.8 11.6 11.6s-5.5 11.6-11.6 11.6c-6.1.1-11.6-4.7-11.6-11.6z"/></g></svg><svg viewBox="-90 -90 720 720" width="40" height="40" id="etsy" x="80" y="80"><path fill="#52B5F6" d="M238.5 172.5c0-3.4.3-5.5 6.1-5.5h78c13.6 0 21.1 11.6 26.5 33.4l4.4 17.4h13.2c2.3-49.4 4.4-70.9 4.4-70.9s-33.4 3.7-53.2 3.7h-99.6L165 149v14.3l18 3.4c12.6 2.3 15.7 5.1 16.7 16.7 0 0 1.1 34 1.1 90.2s-1.1 89.9-1.1 89.9c0 10.2-4.1 14-16.7 16.4l-18 3.4v14.3l53.4-1.7h89.2c20 0 66.7 1.7 66.7 1.7 1.1-12.3 7.9-67.8 8.8-73.9h-12.6L357.1 354c-10.6 23.8-25.9 25.6-42.9 25.6h-50.7c-16.9 0-25.2-6.8-25.2-21.5v-77.6s37.7 0 50.1 1.1c9.6.7 15.3 3.4 18.4 16.7l4.2 17.6h14.7l-1.1-44.6 2-44.9h-14.7l-4.8 19.7c-3.1 12.9-5.1 15.3-18.4 16.7-17.4 1.7-50.4 1.3-50.4 1.3v-91.6h.2z"/></svg><svg viewBox="-90 -90 720 720" width="40" height="40" id="etsy-gray" x="120" y="120"><path fill="#999" d="M238.5 172.5c0-3.4.3-5.5 6.1-5.5h78c13.6 0 21.1 11.6 26.5 33.4l4.4 17.4h13.2c2.3-49.4 4.4-70.9 4.4-70.9s-33.4 3.7-53.2 3.7h-99.6L165 149v14.3l18 3.4c12.6 2.3 15.7 5.1 16.7 16.7 0 0 1.1 34 1.1 90.2s-1.1 89.9-1.1 89.9c0 10.2-4.1 14-16.7 16.4l-18 3.4v14.3l53.4-1.7h89.2c20 0 66.7 1.7 66.7 1.7 1.1-12.3 7.9-67.8 8.8-73.9h-12.6L357.1 354c-10.6 23.8-25.9 25.6-42.9 25.6h-50.7c-16.9 0-25.2-6.8-25.2-21.5v-77.6s37.7 0 50.1 1.1c9.6.7 15.3 3.4 18.4 16.7l4.2 17.6h14.7l-1.1-44.6 2-44.9h-14.7l-4.8 19.7c-3.1 12.9-5.1 15.3-18.4 16.7-17.4 1.7-50.4 1.3-50.4 1.3v-91.6h.2z"/></svg><svg viewBox="-90 -90 720 720" width="40" height="40" id="etsyHover" x="160" y="160"><path fill="#FFF" d="M238.5 172.5c0-3.4.3-5.5 6.1-5.5h78c13.6 0 21.1 11.6 26.5 33.4l4.4 17.4h13.2c2.3-49.4 4.4-70.9 4.4-70.9s-33.4 3.7-53.2 3.7h-99.6L165 149v14.3l18 3.4c12.6 2.3 15.7 5.1 16.7 16.7 0 0 1.1 34 1.1 90.2s-1.1 89.9-1.1 89.9c0 10.2-4.1 14-16.7 16.4l-18 3.4v14.3l53.4-1.7h89.2c20 0 66.7 1.7 66.7 1.7 1.1-12.3 7.9-67.8 8.8-73.9h-12.6L357.1 354c-10.6 23.8-25.9 25.6-42.9 25.6h-50.7c-16.9 0-25.2-6.8-25.2-21.5v-77.6s37.7 0 50.1 1.1c9.6.7 15.3 3.4 18.4 16.7l4.2 17.6h14.7l-1.1-44.6 2-44.9h-14.7l-4.8 19.7c-3.1 12.9-5.1 15.3-18.4 16.7-17.4 1.7-50.4 1.3-50.4 1.3v-91.6h.2z"/></svg><svg viewBox="-90 -90 720 720" width="40" height="40" id="facebook" x="200" y="200"><path fill="#52B5F6" d="M297.3 124c-32.2 0-58.4 26.1-58.4 58.4v35h-46.7V264h46.7v163.4h46.7V264h52.5l11.7-46.7h-64.2v-35c0-6.4 5.3-11.7 11.7-11.7h58.4V124h-58.4z"/></svg><svg viewBox="-90 -90 720 720" width="40" height="40" id="facebook-gray" x="240" y="240"><path fill="#999" d="M297.3 124c-32.2 0-58.4 26.1-58.4 58.4v35h-46.7V264h46.7v163.4h46.7V264h52.5l11.7-46.7h-64.2v-35c0-6.4 5.3-11.7 11.7-11.7h58.4V124h-58.4z"/></svg><svg viewBox="-90 -90 720 720" width="40" height="40" id="facebookHover" x="280" y="280"><path fill="#FFF" d="M297.3 124c-32.2 0-58.4 26.1-58.4 58.4v35h-46.7V264h46.7v163.4h46.7V264h52.5l11.7-46.7h-64.2v-35c0-6.4 5.3-11.7 11.7-11.7h58.4V124h-58.4z"/></svg><svg viewBox="-90 -90 720 720" width="40" height="40" id="instagram" x="320" y="320"><path fill="#52B5F6" d="M380.7 133H163.1c-18 0-32.5 14.5-32.5 32.5v217.2c0 18.4 14.5 32.9 32.5 32.9h217.2c18 0 32.5-14.5 32.5-32.5V165.5c.4-18-14.1-32.5-32.1-32.5zm-54.4 43.4c0-6 4.9-11 11-11h32.5c6 0 11 4.9 11 11v32.5c0 6-4.9 11-11 11h-32.5c-6 0-11-4.9-11-11v-32.5zm-108.5 93c0-.7 0-1.1.4-1.8 0-.4 0-1.1.4-1.4.4-1.4.4-2.5.7-3.9v-.7c.4-1.4.7-2.8 1.1-4.2 1.8-5.7 4.6-11 8.1-15.5l.4-.4c.7-1.1 1.4-2.1 2.5-2.8l.4-.4c2.5-2.5 4.9-4.9 7.8-7.1.4-.4.7-.7 1.4-1.1s1.4-1.1 2.1-1.4 1.1-.7 1.8-1.1c.7-.4 1.4-.7 2.1-1.1.7-.4 1.8-.7 2.5-1.1.7-.4 1.1-.7 1.8-.7 1.4-.7 2.8-1.1 4.2-1.4.4 0 1.1-.4 1.4-.4 1.1-.4 2.1-.7 3.2-.7.7 0 1.1-.4 1.8-.4 1.1-.4 2.1-.4 3.5-.4.4 0 1.1 0 1.4-.4 1.8 0 3.2-.4 4.9-.4s3.5 0 4.9.4c.4 0 1.1 0 1.4.4 1.1 0 2.1.4 3.5.4.7 0 1.1.4 1.8.4 1.1.4 2.1.4 3.2.7.4 0 1.1.4 1.4.4 1.4.4 2.8 1.1 4.2 1.4.7.4 1.1.4 1.8.7s1.8.7 2.5 1.1 1.4.7 2.1 1.1c.7.4 1.4.7 1.8 1.1.7.4 1.4 1.1 2.1 1.4.4.4.7.7 1.4 1.1 2.8 2.1 5.3 4.6 7.8 7.1l.4.4c.7 1.1 1.8 1.8 2.5 2.8 0 0 0 .4.4.4 3.2 4.2 6 9.2 7.8 14.1 0 .4.4.7.4 1.1.7 2.5 1.4 4.9 2.1 7.4.4 1.1.4 2.1.4 3.2 0 .7 0 1.1.4 1.8 0 1.8.4 3.5.4 4.9 0 30-24.4 54.4-54.4 54.4s-54.4-24.4-54.4-54.4c-.1-1.9-.1-3.6.2-5zm162.9 102.7c0 6-4.9 11-11 11H174c-6 0-11-4.9-11-11V253.5h24.4c-1.8 6.7-2.5 13.8-2.5 20.8 0 48 38.9 86.9 86.9 86.9s86.9-38.9 86.9-86.9c0-7.4-1.1-14.1-2.5-20.8h24.4l.1 118.6z"/></svg><svg viewBox="-90 -90 720 720" width="40" height="40" id="instagram-gray" x="360" y="360"><path fill="#999" d="M380.7 133H163.1c-18 0-32.5 14.5-32.5 32.5v217.2c0 18.4 14.5 32.9 32.5 32.9h217.2c18 0 32.5-14.5 32.5-32.5V165.5c.4-18-14.1-32.5-32.1-32.5zm-54.4 43.4c0-6 4.9-11 11-11h32.5c6 0 11 4.9 11 11v32.5c0 6-4.9 11-11 11h-32.5c-6 0-11-4.9-11-11v-32.5zm-108.5 93c0-.7 0-1.1.4-1.8 0-.4 0-1.1.4-1.4.4-1.4.4-2.5.7-3.9v-.7c.4-1.4.7-2.8 1.1-4.2 1.8-5.7 4.6-11 8.1-15.5l.4-.4c.7-1.1 1.4-2.1 2.5-2.8l.4-.4c2.5-2.5 4.9-4.9 7.8-7.1.4-.4.7-.7 1.4-1.1s1.4-1.1 2.1-1.4 1.1-.7 1.8-1.1c.7-.4 1.4-.7 2.1-1.1.7-.4 1.8-.7 2.5-1.1.7-.4 1.1-.7 1.8-.7 1.4-.7 2.8-1.1 4.2-1.4.4 0 1.1-.4 1.4-.4 1.1-.4 2.1-.7 3.2-.7.7 0 1.1-.4 1.8-.4 1.1-.4 2.1-.4 3.5-.4.4 0 1.1 0 1.4-.4 1.8 0 3.2-.4 4.9-.4s3.5 0 4.9.4c.4 0 1.1 0 1.4.4 1.1 0 2.1.4 3.5.4.7 0 1.1.4 1.8.4 1.1.4 2.1.4 3.2.7.4 0 1.1.4 1.4.4 1.4.4 2.8 1.1 4.2 1.4.7.4 1.1.4 1.8.7s1.8.7 2.5 1.1 1.4.7 2.1 1.1c.7.4 1.4.7 1.8 1.1.7.4 1.4 1.1 2.1 1.4.4.4.7.7 1.4 1.1 2.8 2.1 5.3 4.6 7.8 7.1l.4.4c.7 1.1 1.8 1.8 2.5 2.8 0 0 0 .4.4.4 3.2 4.2 6 9.2 7.8 14.1 0 .4.4.7.4 1.1.7 2.5 1.4 4.9 2.1 7.4.4 1.1.4 2.1.4 3.2 0 .7 0 1.1.4 1.8 0 1.8.4 3.5.4 4.9 0 30-24.4 54.4-54.4 54.4s-54.4-24.4-54.4-54.4c-.1-1.9-.1-3.6.2-5zm162.9 102.7c0 6-4.9 11-11 11H174c-6 0-11-4.9-11-11V253.5h24.4c-1.8 6.7-2.5 13.8-2.5 20.8 0 48 38.9 86.9 86.9 86.9s86.9-38.9 86.9-86.9c0-7.4-1.1-14.1-2.5-20.8h24.4l.1 118.6z"/></svg><svg viewBox="-90 -90 720 720" width="40" height="40" id="instagramHover" x="400" y="400"><path fill="#FFF" d="M380.7 133H163.1c-18 0-32.5 14.5-32.5 32.5v217.2c0 18.4 14.5 32.9 32.5 32.9h217.2c18 0 32.5-14.5 32.5-32.5V165.5c.4-18-14.1-32.5-32.1-32.5zm-54.4 43.4c0-6 4.9-11 11-11h32.5c6 0 11 4.9 11 11v32.5c0 6-4.9 11-11 11h-32.5c-6 0-11-4.9-11-11v-32.5zm-108.5 93c0-.7 0-1.1.4-1.8 0-.4 0-1.1.4-1.4.4-1.4.4-2.5.7-3.9v-.7c.4-1.4.7-2.8 1.1-4.2 1.8-5.7 4.6-11 8.1-15.5l.4-.4c.7-1.1 1.4-2.1 2.5-2.8l.4-.4c2.5-2.5 4.9-4.9 7.8-7.1.4-.4.7-.7 1.4-1.1s1.4-1.1 2.1-1.4 1.1-.7 1.8-1.1c.7-.4 1.4-.7 2.1-1.1.7-.4 1.8-.7 2.5-1.1.7-.4 1.1-.7 1.8-.7 1.4-.7 2.8-1.1 4.2-1.4.4 0 1.1-.4 1.4-.4 1.1-.4 2.1-.7 3.2-.7.7 0 1.1-.4 1.8-.4 1.1-.4 2.1-.4 3.5-.4.4 0 1.1 0 1.4-.4 1.8 0 3.2-.4 4.9-.4s3.5 0 4.9.4c.4 0 1.1 0 1.4.4 1.1 0 2.1.4 3.5.4.7 0 1.1.4 1.8.4 1.1.4 2.1.4 3.2.7.4 0 1.1.4 1.4.4 1.4.4 2.8 1.1 4.2 1.4.7.4 1.1.4 1.8.7s1.8.7 2.5 1.1 1.4.7 2.1 1.1c.7.4 1.4.7 1.8 1.1.7.4 1.4 1.1 2.1 1.4.4.4.7.7 1.4 1.1 2.8 2.1 5.3 4.6 7.8 7.1l.4.4c.7 1.1 1.8 1.8 2.5 2.8 0 0 0 .4.4.4 3.2 4.2 6 9.2 7.8 14.1 0 .4.4.7.4 1.1.7 2.5 1.4 4.9 2.1 7.4.4 1.1.4 2.1.4 3.2 0 .7 0 1.1.4 1.8 0 1.8.4 3.5.4 4.9 0 30-24.4 54.4-54.4 54.4s-54.4-24.4-54.4-54.4c-.1-1.9-.1-3.6.2-5zm162.9 102.7c0 6-4.9 11-11 11H174c-6 0-11-4.9-11-11V253.5h24.4c-1.8 6.7-2.5 13.8-2.5 20.8 0 48 38.9 86.9 86.9 86.9s86.9-38.9 86.9-86.9c0-7.4-1.1-14.1-2.5-20.8h24.4l.1 118.6z"/></svg><svg viewBox="-90 -90 720 720" width="40" height="40" id="pinterest" x="440" y="440"><path fill="#52B5F6" d="M283 119.7c-82.8 0-124.4 59.3-124.4 108.8 0 30 11.3 56.5 35.7 66.6 4 1.6 7.6.1 8.8-4.4.9-3.1 2.7-10.7 3.5-13.9 1.2-4.4.7-5.9-2.5-9.7-7-8.2-11.5-19-11.5-34.1 0-44 33-83.4 85.8-83.4 46.8 0 72.4 28.6 72.4 66.7 0 50.2-22.2 92.6-55.2 92.6-18.2 0-31.9-15-27.5-33.5 5.2-22.1 15.4-45.8 15.4-61.8 0-14.3-7.7-26.2-23.5-26.2-18.6 0-33.6 19.3-33.6 45.1 0 16.4 5.6 27.6 5.6 27.6s-19.1 80.7-22.4 94.9c-6.7 28.2-1 62.7-.5 66.2.2 2 3 2.6 4.2 1 1.7-2.2 23.9-29.7 31.5-57 2.1-7.8 12.2-47.9 12.2-47.9 6 11.6 23.7 21.7 42.5 21.7 56 0 94-51.1 94-119.4-.2-51.8-44-99.9-110.5-99.9z"/></svg><svg viewBox="-90 -90 720 720" width="40" height="40" id="pinterest-gray" x="480" y="480"><path fill="#999" d="M283 119.7c-82.8 0-124.4 59.3-124.4 108.8 0 30 11.3 56.5 35.7 66.6 4 1.6 7.6.1 8.8-4.4.9-3.1 2.7-10.7 3.5-13.9 1.2-4.4.7-5.9-2.5-9.7-7-8.2-11.5-19-11.5-34.1 0-44 33-83.4 85.8-83.4 46.8 0 72.4 28.6 72.4 66.7 0 50.2-22.2 92.6-55.2 92.6-18.2 0-31.9-15-27.5-33.5 5.2-22.1 15.4-45.8 15.4-61.8 0-14.3-7.7-26.2-23.5-26.2-18.6 0-33.6 19.3-33.6 45.1 0 16.4 5.6 27.6 5.6 27.6s-19.1 80.7-22.4 94.9c-6.7 28.2-1 62.7-.5 66.2.2 2 3 2.6 4.2 1 1.7-2.2 23.9-29.7 31.5-57 2.1-7.8 12.2-47.9 12.2-47.9 6 11.6 23.7 21.7 42.5 21.7 56 0 94-51.1 94-119.4-.2-51.8-44-99.9-110.5-99.9z"/></svg><svg viewBox="-90 -90 720 720" width="40" height="40" id="pinterestHover" x="520" y="520"><path fill="#FFF" d="M283 119.7c-82.8 0-124.4 59.3-124.4 108.8 0 30 11.3 56.5 35.7 66.6 4 1.6 7.6.1 8.8-4.4.9-3.1 2.7-10.7 3.5-13.9 1.2-4.4.7-5.9-2.5-9.7-7-8.2-11.5-19-11.5-34.1 0-44 33-83.4 85.8-83.4 46.8 0 72.4 28.6 72.4 66.7 0 50.2-22.2 92.6-55.2 92.6-18.2 0-31.9-15-27.5-33.5 5.2-22.1 15.4-45.8 15.4-61.8 0-14.3-7.7-26.2-23.5-26.2-18.6 0-33.6 19.3-33.6 45.1 0 16.4 5.6 27.6 5.6 27.6s-19.1 80.7-22.4 94.9c-6.7 28.2-1 62.7-.5 66.2.2 2 3 2.6 4.2 1 1.7-2.2 23.9-29.7 31.5-57 2.1-7.8 12.2-47.9 12.2-47.9 6 11.6 23.7 21.7 42.5 21.7 56 0 94-51.1 94-119.4-.2-51.8-44-99.9-110.5-99.9z"/></svg><svg width="40" height="40" viewBox="-5.33 -5.33 42.67 42.67" id="share" x="560" y="560"><path fill="#444" d="M27 22c-1.41 0-2.685.586-3.594 1.526l-13.47-6.734c.042-.258.064-.522.064-.79s-.022-.535-.063-.792l13.47-6.734c.908.94 2.182 1.526 3.593 1.526 2.76 0 5-2.24 5-5s-2.24-5-5-5-5 2.24-5 5c0 .27.022.534.063.79l-13.47 6.735C7.686 11.587 6.412 11 5 11c-2.76 0-5 2.24-5 5s2.24 5 5 5c1.41 0 2.685-.585 3.594-1.525l13.47 6.734c-.042.257-.064.52-.064.79 0 2.76 2.24 5 5 5s5-2.24 5-5-2.24-5-5-5z"/></svg><svg viewBox="-131 -103 720 720" width="40" height="40" id="tumblr" x="600" y="600"><path fill="#52B5F6" d="M236.1 222.3V326c0 9 .5 15.6 1.5 19.8 2.1 8.5 6.8 11.3 12.1 15.8 10 8.3 41.7 15.9 63.7-2.3l3.1 34.9c-9.1 10.8-59.9 19-83.9 14.9-16.1-2.8-30.4-4.7-42.2-13.9-11.2-8.8-17.7-22.5-19.7-41.1-.6-5.1-.9-15.5-.9-31.3V222.3l-29.5.4v-29.6c20.7-2.2 57.7-28.1 65-82.8H236l.8 77.5 66.8.4-.8 34.5-66.7-.4z"/></svg><svg viewBox="-131 -103 720 720" width="40" height="40" id="tumblr-gray" x="640" y="640"><path fill="#999" d="M236.1 222.3V326c0 9 .5 15.6 1.5 19.8 2.1 8.5 6.8 11.3 12.1 15.8 10 8.3 41.7 15.9 63.7-2.3l3.1 34.9c-9.1 10.8-59.9 19-83.9 14.9-16.1-2.8-30.4-4.7-42.2-13.9-11.2-8.8-17.7-22.5-19.7-41.1-.6-5.1-.9-15.5-.9-31.3V222.3l-29.5.4v-29.6c20.7-2.2 57.7-28.1 65-82.8H236l.8 77.5 66.8.4-.8 34.5-66.7-.4z"/></svg><svg viewBox="-131 -103 720 720" width="40" height="40" id="tumblrHover" x="680" y="680"><path fill="#FFF" d="M236.1 222.3V326c0 9 .5 15.6 1.5 19.8 2.1 8.5 6.8 11.3 12.1 15.8 10 8.3 41.7 15.9 63.7-2.3l3.1 34.9c-9.1 10.8-59.9 19-83.9 14.9-16.1-2.8-30.4-4.7-42.2-13.9-11.2-8.8-17.7-22.5-19.7-41.1-.6-5.1-.9-15.5-.9-31.3V222.3l-29.5.4v-29.6c20.7-2.2 57.7-28.1 65-82.8H236l.8 77.5 66.8.4-.8 34.5-66.7-.4z"/></svg><svg viewBox="-90 -90 720 720" width="40" height="40" id="twitter" x="720" y="720"><path fill="#52B5F6" d="M413.9 188.1c-10.4 4.6-21.6 7.8-33.3 9.1 11.9-7.2 21.2-18.5 25.5-32.1-11.2 6.7-23.6 11.5-36.9 14.1-10.7-11.2-25.7-18.3-42.4-18.3-37.5 0-65 34.9-56.6 71.3-48.3-2.4-91.1-25.5-119.6-60.6-15.1 26-7.9 60.2 17.9 77.5-9.6-.3-18.4-3-26.3-7.2-.6 27 18.6 52.1 46.6 57.6-8.2 2.2-17.1 2.8-26.2 1 7.4 23.1 28.8 39.8 54.2 40.3-24.4 19.1-55.1 27.6-86 24.1 25.7 16.5 56.1 26 89 26 107.7 0 168.6-91.1 164.9-172.6 11.7-8.4 21.5-18.6 29.2-30.2z"/></svg><svg viewBox="-90 -90 720 720" width="40" height="40" id="twitter-gray" x="760" y="760"><path fill="#999" d="M413.9 188.1c-10.4 4.6-21.6 7.8-33.3 9.1 11.9-7.2 21.2-18.5 25.5-32.1-11.2 6.7-23.6 11.5-36.9 14.1-10.7-11.2-25.7-18.3-42.4-18.3-37.5 0-65 34.9-56.6 71.3-48.3-2.4-91.1-25.5-119.6-60.6-15.1 26-7.9 60.2 17.9 77.5-9.6-.3-18.4-3-26.3-7.2-.6 27 18.6 52.1 46.6 57.6-8.2 2.2-17.1 2.8-26.2 1 7.4 23.1 28.8 39.8 54.2 40.3-24.4 19.1-55.1 27.6-86 24.1 25.7 16.5 56.1 26 89 26 107.7 0 168.6-91.1 164.9-172.6 11.7-8.4 21.5-18.6 29.2-30.2z"/></svg><svg viewBox="-90 -90 720 720" width="40" height="40" id="twitterHover" x="800" y="800"><path fill="#FFF" d="M413.9 188.1c-10.4 4.6-21.6 7.8-33.3 9.1 11.9-7.2 21.2-18.5 25.5-32.1-11.2 6.7-23.6 11.5-36.9 14.1-10.7-11.2-25.7-18.3-42.4-18.3-37.5 0-65 34.9-56.6 71.3-48.3-2.4-91.1-25.5-119.6-60.6-15.1 26-7.9 60.2 17.9 77.5-9.6-.3-18.4-3-26.3-7.2-.6 27 18.6 52.1 46.6 57.6-8.2 2.2-17.1 2.8-26.2 1 7.4 23.1 28.8 39.8 54.2 40.3-24.4 19.1-55.1 27.6-86 24.1 25.7 16.5 56.1 26 89 26 107.7 0 168.6-91.1 164.9-172.6 11.7-8.4 21.5-18.6 29.2-30.2z"/></svg></svg>