<?xml version="1.0" encoding="utf-8"?>
<!-- Generator: Adobe Illustrator 18.1.1, SVG Export Plug-In . SVG Version: 6.00 Build 0)  -->
<svg version="1.1" id="Layer_1" xmlns="http://www.w3.org/2000/svg" xmlns:xlink="http://www.w3.org/1999/xlink" x="0px" y="0px"
	 viewBox="0 0 540 540" enable-background="new 0 0 540 540" xml:space="preserve">
<path fill="#52B5F6" d="M238.5,172.5c0-3.4,0.3-5.5,6.1-5.5h78c13.6,0,21.1,11.6,26.5,33.4l4.4,17.4h13.2
	c2.3-49.4,4.4-70.9,4.4-70.9s-33.4,3.7-53.2,3.7h-99.6L165,149v14.3l18,3.4c12.6,2.3,15.7,5.1,16.7,16.7c0,0,1.1,34,1.1,90.2
	s-1.1,89.9-1.1,89.9c0,10.2-4.1,14-16.7,16.4l-18,3.4v14.3l53.4-1.7h89.2c20,0,66.7,1.7,66.7,1.7c1.1-12.3,7.9-67.8,8.8-73.9h-12.6
	l-13.4,30.3c-10.6,23.8-25.9,25.6-42.9,25.6h-50.7c-16.9,0-25.2-6.8-25.2-21.5v-77.6c0,0,37.7,0,50.1,1.1
	c9.6,0.7,15.3,3.4,18.4,16.7l4.2,17.6h14.7l-1.1-44.6l2-44.9h-14.7l-4.8,19.7c-3.1,12.9-5.1,15.3-18.4,16.7
	c-17.4,1.7-50.4,1.3-50.4,1.3v-91.6H238.5z"/>
</svg>
