<?xml version="1.0" encoding="utf-8"?>
<!-- Generator: Adobe Illustrator 18.1.1, SVG Export Plug-In . SVG Version: 6.00 Build 0)  -->
<svg version="1.1" id="Layer_1" xmlns="http://www.w3.org/2000/svg" xmlns:xlink="http://www.w3.org/1999/xlink" x="0px" y="0px"
	 viewBox="0 0 540 540" enable-background="new 0 0 540 540" xml:space="preserve">
<path fill="#999999" d="M283,119.7c-82.8,0-124.4,59.3-124.4,108.8c0,30,11.3,56.5,35.7,66.6c4,1.6,7.6,0.1,8.8-4.4
	c0.9-3.1,2.7-10.7,3.5-13.9c1.2-4.4,0.7-5.9-2.5-9.7c-7-8.2-11.5-19-11.5-34.1c0-44,33-83.4,85.8-83.4c46.8,0,72.4,28.6,72.4,66.7
	c0,50.2-22.2,92.6-55.2,92.6c-18.2,0-31.9-15-27.5-33.5c5.2-22.1,15.4-45.8,15.4-61.8c0-14.3-7.7-26.2-23.5-26.2
	c-18.6,0-33.6,19.3-33.6,45.1c0,16.4,5.6,27.6,5.6,27.6s-19.1,80.7-22.4,94.9c-6.7,28.2-1,62.7-0.5,66.2c0.2,2,3,2.6,4.2,1
	c1.7-2.2,23.9-29.7,31.5-57c2.1-7.8,12.2-47.9,12.2-47.9c6,11.6,23.7,21.7,42.5,21.7c56,0,94-51.1,94-119.4
	C393.3,167.8,349.5,119.7,283,119.7z"/>
</svg>
