<?xml version="1.0" encoding="utf-8"?>
<!-- Generator: Adobe Illustrator 18.1.1, SVG Export Plug-In . SVG Version: 6.00 Build 0)  -->
<svg version="1.1" id="Layer_1" xmlns="http://www.w3.org/2000/svg" xmlns:xlink="http://www.w3.org/1999/xlink" x="0px" y="0px"
	 viewBox="-41 -13 540 540" enable-background="new -41 -13 540 540" xml:space="preserve">
<path fill="#52B5F6" d="M236.1,222.3V326c0,9,0.5,15.6,1.5,19.8c2.1,8.5,6.8,11.3,12.1,15.8c10,8.3,41.7,15.9,63.7-2.3l3.1,34.9
	c-9.1,10.8-59.9,19-83.9,14.9c-16.1-2.8-30.4-4.7-42.2-13.9c-11.2-8.8-17.7-22.5-19.7-41.1c-0.6-5.1-0.9-15.5-0.9-31.3V222.3
	l-29.5,0.4v-29.6c20.7-2.2,57.7-28.1,65-82.8h30.7l0.8,77.5l66.8,0.4l-0.8,34.5L236.1,222.3L236.1,222.3z"/>
</svg>
